<?xml version="1.0" standalone="no"?>
<!DOCTYPE svg PUBLIC "-//W3C//DTD SVG 1.1//EN" "http://www.w3.org/Graphics/SVG/1.1/DTD/svg11.dtd" >
<svg xmlns="http://www.w3.org/2000/svg">
<metadata>Generated by IcoMoon</metadata>
<defs>
<font id="Ledger" horiz-adv-x="1024">
<font-face units-per-em="1024" ascent="960" descent="-64" />
<missing-glyph horiz-adv-x="1024" />
<glyph unicode="&#x20;" horiz-adv-x="512" d="" />
<glyph unicode="&#xe900;" glyph-name="comment" d="M768 596.667v86h-512v-86h512zM598 340.667v86h-342v-86h342zM256 554.667v-86h512v86h-512zM854 852.667q34 0 59-25t25-59v-512q0-34-25-60t-59-26h-598l-170-170v768q0 34 25 59t59 25h684z" />
<glyph unicode="&#xe901;" glyph-name="flash" d="M298 852.667h428l-172-340h172l-300-512v384h-128v468z" />
<glyph unicode="&#xe902;" glyph-name="flash-off" d="M726 512.667l-66-114-362 362v92h428l-172-340h172zM140 810.667l670-672-54-54-176 178-154-262v384h-128v158l-212 214z" />
<glyph unicode="&#xe903;" glyph-name="star" d="M512 202.667l-264-160 70 300-232 202 306 26 120 282 120-282 306-26-232-202 70-300z" />
<glyph unicode="&#xe904;" glyph-name="star-half" d="M512 280.667l160-96-42 182 142 124-188 16-72 172v-398zM938 544.667l-232-202 70-300-264 160-264-160 70 300-232 202 306 26 120 282 120-282z" />
<glyph unicode="&#xe905;" glyph-name="star-circle" d="M692 170.667l-48 206 160 138-210 18-82 192-82-194-210-16 160-138-48-206 180 108zM512 852.667q176 0 301-125t125-301-125-301-301-125-301 125-125 301 125 301 301 125z" />
<glyph unicode="&#xe906;" glyph-name="check-circle" d="M426 212.667l384 384-60 62-324-324-152 152-60-60zM512 852.667q176 0 301-125t125-301-125-301-301-125-301 125-125 301 125 301 301 125z" />
<glyph unicode="&#xe907;" glyph-name="alert-circle" d="M554 384.667v256h-84v-256h84zM554 212.667v86h-84v-86h84zM512 852.667q176 0 301-125t125-301-125-301-301-125-301 125-125 301 125 301 301 125z" />
<glyph unicode="&#xe908;" glyph-name="alert-circle-o" d="M512 84.667q140 0 241 101t101 241-101 241-241 101-241-101-101-241 101-241 241-101zM512 852.667q176 0 301-125t125-301-125-301-301-125-301 125-125 301 125 301 301 125zM470 640.667h84v-256h-84v256zM470 298.667h84v-86h-84v86z" />
<glyph unicode="&#xe909;" glyph-name="circle" d="M512 852.667q176 0 301-125t125-301-125-301-301-125-301 125-125 301 125 301 301 125z" />
<glyph unicode="&#xe90b;" glyph-name="circle-o" d="M512 84.667q140 0 241 101t101 241-101 241-241 101-241-101-101-241 101-241 241-101zM512 852.667q176 0 301-125t125-301-125-301-301-125-301 125-125 301 125 301 301 125z" />
<glyph unicode="&#xe90c;" glyph-name="activity" d="M856.74 724.766c61.25 0 110.903-49.653 110.903-110.903s-49.653-110.903-110.903-110.903c-19.178 0-37.219 4.868-52.954 13.435l-90.597-90.392c20.167-20.082 32.648-47.876 32.648-78.586 0-61.25-49.653-110.903-110.903-110.903s-110.903 49.653-110.903 110.903c0 19.057 4.807 36.992 13.274 52.657l-54.421 54.437c-16.624-9.944-36.069-15.659-56.849-15.659-20.165 0-39.072 5.382-55.365 14.787l-110.578-110.8c11.427-17.44 18.072-38.295 18.072-60.702 0-61.25-49.653-110.903-110.903-110.903s-110.903 49.653-110.903 110.903c0 61.25 49.653 110.903 110.903 110.903 17.711 0 34.452-4.151 49.303-11.534l113.306 112.97c-9.375 16.274-14.738 35.151-14.738 55.28 0 61.25 49.653 110.903 110.903 110.903s110.903-49.653 110.903-110.903c0-20.2-5.4-39.138-14.836-55.45l53.287-53.31c17.202 10.969 37.632 17.325 59.546 17.325 8.542 0 16.858-0.966 24.845-2.794l101.516 101.824c-9.82 16.55-15.458 35.872-15.458 56.512 0 61.25 49.653 110.903 110.903 110.903z" />
<glyph unicode="&#xe90d;" glyph-name="arrow-back" d="M456.938 783.198c8.501 8.158 22.006 7.88 30.163-0.621v0l53.847-56.11c7.88-8.211 7.927-21.163 0.106-29.431v0l-167.364-176.91 486.73-0.011c11.782 0 21.333-9.551 21.333-21.333v-81.39c0-11.782-9.551-21.333-21.333-21.333l-486.346 0.036 167.020-175.347c6.836-7.177 7.721-17.933 2.636-26.038l-2.545-3.293-54.092-57.503c-0.294-0.313-0.598-0.617-0.91-0.911-8.576-8.079-22.077-7.676-30.156 0.9v0l-305.397 324.184 305.552 324.348z" />
<glyph unicode="&#xe90e;" glyph-name="arrow-collapse-left" d="M445.706 607.266l-154.682-143.633c-8.634-8.017-9.134-21.515-1.117-30.149 0.358-0.386 0.731-0.758 1.117-1.117l154.682-143.633c17.268-16.034 44.264-15.034 60.298 2.233s15.034 44.264-2.233 60.298l-104.175 96.734 104.175 96.734c17.268 16.034 18.268 43.031 2.233 60.298s-43.031 18.268-60.298 2.233zM668.093 607.266l-154.682-143.633c-8.634-8.017-9.134-21.515-1.117-30.149 0.358-0.386 0.731-0.758 1.117-1.117l154.682-143.633c17.268-16.034 44.264-15.034 60.298 2.233s15.034 44.264-2.233 60.298l-104.175 96.734 104.175 96.734c17.268 16.034 18.268 43.031 2.233 60.298s-43.031 18.268-60.298 2.233z" />
<glyph unicode="&#xe90f;" glyph-name="arrow-expand-down" d="M671.266 388.58l-143.633-154.682c-8.017-8.634-21.515-9.134-30.149-1.117-0.386 0.358-0.758 0.731-1.117 1.117l-143.633 154.682c-16.034 17.268-15.034 44.264 2.233 60.298s44.264 15.034 60.298-2.233l96.734-104.175 96.734 104.175c16.034 17.268 43.031 18.268 60.298 2.233s18.268-43.031 2.233-60.298zM671.266 610.967l-143.633-154.682c-8.017-8.634-21.515-9.134-30.149-1.117-0.386 0.358-0.758 0.731-1.117 1.117l-143.633 154.682c-16.034 17.268-15.034 44.264 2.233 60.298s44.264 15.034 60.298-2.233l96.734-104.175 96.734 104.175c16.034 17.268 43.031 18.268 60.298 2.233s18.268-43.031 2.233-60.298z" />
<glyph unicode="&#xe910;" glyph-name="arrow-expand-right" d="M578.294 607.266l154.682-143.633c8.634-8.017 9.134-21.515 1.117-30.149-0.358-0.386-0.731-0.758-1.117-1.117l-154.682-143.633c-17.268-16.034-44.264-15.034-60.298 2.233s-15.034 44.264 2.233 60.298l104.175 96.734-104.175 96.734c-17.268 16.034-18.268 43.031-2.233 60.298s43.031 18.268 60.298 2.233zM355.907 607.266l154.682-143.633c8.634-8.017 9.134-21.515 1.117-30.149-0.358-0.386-0.731-0.758-1.117-1.117l-154.682-143.633c-17.268-16.034-44.264-15.034-60.298 2.233s-15.034 44.264 2.233 60.298l104.175 96.734-104.175 96.734c-17.268 16.034-18.268 43.031-2.233 60.298s43.031 18.268 60.298 2.233z" />
<glyph unicode="&#xe911;" glyph-name="chevron-down" d="M512 416.466l169.674 168.208c8.367 8.295 21.875 8.236 30.17-0.131l30.039-30.3c8.295-8.367 8.236-21.875-0.131-30.17l-214.732-212.877c-8.316-8.244-21.723-8.244-30.039 0l-214.732 212.877c-8.367 8.295-8.426 21.802-0.131 30.17l30.039 30.3c8.295 8.367 21.802 8.426 30.17 0.131l169.674-168.208z" />
<glyph unicode="&#xe912;" glyph-name="chevron-left" d="M645.795 601.283l-58.343 57.788-179.469-181.032c-16.488-16.632-16.488-43.446 0-60.077l179.469-181.032 58.343 60.847-146.315 150.224 146.315 153.283z" />
<glyph unicode="&#xe913;" glyph-name="arrow-up-down" d="M682.863 324.833c23.456 0 29.446-14.026 13.699-30.984l-169.899-182.968c-8.098-8.721-21.282-8.664-29.327 0l-169.899 182.968c-15.89 17.112-9.329 30.984 13.699 30.984h341.726zM497.337 777.896c8.045 8.664 21.228 8.721 29.327 0v0l169.899-182.968c15.747-16.959 9.756-30.984-13.699-30.984v0h-341.726c-23.029 0-29.589 13.872-13.699 30.984v0z" />
<glyph unicode="&#xe914;" glyph-name="chevron-right" d="M378.205 601.283l58.343 57.788 179.469-181.032c16.488-16.632 16.488-43.446 0-60.077l-179.469-181.032-58.343 60.847 146.315 150.224-146.315 153.283z" />
<glyph unicode="&#xe915;" glyph-name="assigments" d="M512 810.667c200.295 0 362.667-162.371 362.667-362.667s-162.371-362.667-362.667-362.667c-200.295 0-362.667 162.371-362.667 362.667s162.371 362.667 362.667 362.667zM667.186 597.63l-218.047-218.047c-8.331-8.331-21.839-8.331-30.17 0l-62.155 62.155c-13.843 13.843-36.286 13.843-50.129 0s-13.843-36.286 0-50.129l97.199-97.199c16.662-16.662 43.677-16.662 60.34 0l253.092 253.092c13.843 13.843 13.843 36.286 0 50.129s-36.286 13.843-50.129 0z" />
<glyph unicode="&#xe916;" glyph-name="chevron-up" d="M512.13 482.794l169.674-168.208c8.367-8.295 21.875-8.236 30.17 0.131l30.039 30.3c8.295 8.367 8.236 21.875-0.131 30.17l-214.732 212.877c-8.316 8.244-21.723 8.244-30.039 0l-214.732-212.877c-8.367-8.295-8.426-21.802-0.131-30.17l30.039-30.3c8.295-8.367 21.802-8.426 30.17-0.131l169.674 168.208z" />
<glyph unicode="&#xe917;" glyph-name="attach-messages" d="M710.084 491.883l-252.33-252.33c-48.491-48.491-127.043-48.491-175.534 0s-48.491 127.043 0 175.534l274.272 274.272c30.28 30.28 79.429 30.28 109.709 0s30.28-79.429 0-109.709l-230.388-230.388c-12.068-12.068-31.816-12.068-43.883 0s-12.068 31.816 0 43.883l208.447 208.447-32.913 32.913-208.447-208.447c-30.28-30.28-30.28-79.429 0-109.709s79.429-30.28 109.709 0l230.388 230.388c48.491 48.491 48.491 127.043 0 175.534s-127.043 48.491-175.534 0l-274.272-274.272c-66.703-66.703-66.703-174.656 0-241.359s174.656-66.703 241.359 0l252.33 252.33-32.913 32.913z" />
<glyph unicode="&#xe918;" glyph-name="attach" d="M706.133 832c94.257 0 170.667-76.41 170.667-170.667v-426.667c0-94.257-76.41-170.667-170.667-170.667h-388.267c-94.257 0-170.667 76.41-170.667 170.667v426.667c0 94.257 76.41 170.667 170.667 170.667h388.267zM465.315 725.512l-3.861 0.013-2.547-0.101c-73.798-2.905-132.998-63.822-133.168-138.344v0l-0.5-219.545c-0.229-100.536 77.164-183.164 175.64-191.017 2.035-0.422 4.222-0.644 6.56-0.637v0l9.392 0.028c2.317 0.007 4.483 0.238 6.499 0.664 98.678 8.337 176.071 90.869 176.31 191.473v0l0.456 192.021c0.035 14.845-11.971 26.909-26.816 26.944s-26.909-11.971-26.944-26.816v0l-0.456-192.021c-0.178-74.799-59.528-135.747-133.887-138.441-73.946 2.26-133.166 63.112-132.996 137.68v0l0.5 219.545c0.105 46.227 37.408 83.982 83.396 84.801 45.936-0.559 82.798-37.779 82.664-83.733v0l-0.615-211.498c-0.049-16.892-13.567-30.686-30.154-31.086-16.511 0.314-29.71 13.807-29.653 30.629v0l0.625 183.35c0.051 14.845-11.943 26.921-26.788 26.972s-26.921-11.943-26.972-26.788v0l-0.625-183.35c-0.155-45.579 35.569-82.695 80.548-84.509 0.76-0.050 1.539-0.074 2.334-0.073l2.517 0.026 1.159 0.062c44.818 2.042 80.637 39.203 80.769 84.61v0l0.615 211.497c0.217 74.508-58.803 135.095-132.751 137.577-0.825 0.059-1.671 0.088-2.538 0.086z" />
<glyph unicode="&#xe919;" glyph-name="bell" d="M758.886 385.248v173.588c0 138.693-112.433 251.126-251.126 251.126v0 0c-134.008 0-242.642-108.635-242.642-242.642v-182.072l-73.682-110.095c-13.106-19.583-7.856-46.083 11.728-59.189 7.022-4.7 15.281-7.208 23.731-7.208h165.22v-7.587c0-63.586 51.546-115.132 115.132-115.132s115.132 51.546 115.132 115.132v7.587h174.731c23.564 0 42.667 19.103 42.667 42.667 0 8.45-2.509 16.709-7.208 23.731l-73.682 110.095z" />
<glyph unicode="&#xe91a;" glyph-name="dot-circle" d="M512 84.667q140 0 241 101t101 241-101 241-241 101-241-101-101-241 101-241 241-101zM512 852.667q176 0 301-125t125-301-125-301-301-125-301 125-125 301 125 301 301 125zM512 640.667q88 0 151-63t63-151-63-151-151-63-151 63-63 151 63 151 151 63z" />
<glyph unicode="&#xe91b;" glyph-name="business" d="M431.407 789.333c39.633 0 72.42-30.805 75.599-69.654l0.253-6.198v-75.852h303.407c39.633 0 72.42-30.805 75.599-69.654l0.253-6.198v-379.259c0-39.633-30.805-72.42-69.654-75.599l-6.198-0.253h-606.815c-39.633 0-72.42 30.805-75.599 69.654l-0.253 6.198v530.963c0 39.633 30.805 72.42 69.654 75.599l6.198 0.253h227.556zM279.704 258.37h-75.852v-75.852h75.852v75.852zM431.407 258.37h-75.852v-75.852h75.852v75.852zM772.741 561.778h-265.481v-75.852h226.889v-75.852h-226.889v-75.852h226.889v-75.852h-226.889v-75.852h265.481c20.859 0 37.926 17.067 37.926 37.926v0 303.407c0 20.859-17.067 37.926-37.926 37.926v0zM279.704 410.074h-75.852v-75.852h75.852v75.852zM431.407 410.074h-75.852v-75.852h75.852v75.852zM279.704 561.778h-75.852v-75.852h75.852v75.852zM431.407 561.778h-75.852v-75.852h75.852v75.852zM279.704 713.481h-75.852v-75.852h75.852v75.852zM431.407 713.481h-75.852v-75.852h75.852v75.852z" />
<glyph unicode="&#xe91c;" glyph-name="buzz" d="M546.866 874.667c152.675-86.879 249.034-249.035 249.034-427.971 0-181.86-99.545-346.25-256.185-431.962v0l-55.896 102.152c119.67 65.482 195.637 190.934 195.637 329.81 0 136.647-73.53 260.386-190.18 326.765v0zM427.304 685.902c92.586-43.52 152.987-136.757 152.987-240.897 0-104.289-60.575-197.635-153.363-241.073v0l-49.371 105.461c52.231 24.452 86.289 76.935 86.289 135.612 0 58.593-33.96 111.015-86.078 135.513v0zM314.222 503.159c32.155 0 58.222-26.067 58.222-58.222s-26.067-58.222-58.222-58.222c-32.155 0-58.222 26.067-58.222 58.222s26.067 58.222 58.222 58.222z" />
<glyph unicode="&#xe91d;" glyph-name="chat" d="M789.131 812.149c47.128 0 85.333-38.205 85.333-85.333v-422.312c0-47.128-38.205-85.333-85.333-85.333h-389.286c-17.107 0-33.819-5.142-47.968-14.758l-169.015-114.874c-3.537-2.404-7.715-3.69-11.992-3.69-11.782 0-21.333 9.551-21.333 21.333v619.634c0 47.128 38.205 85.333 85.333 85.333h554.261zM321.227 455.884c31.609 0 57.233 25.624 57.233 57.233s-25.624 57.233-57.233 57.233c-31.609 0-57.233-25.624-57.233-57.233s25.624-57.233 57.233-57.233zM512 455.884c31.609 0 57.233 25.624 57.233 57.233s-25.624 57.233-57.233 57.233c-31.609 0-57.233-25.624-57.233-57.233s25.624-57.233 57.233-57.233zM702.773 455.884c31.609 0 57.233 25.624 57.233 57.233s-25.624 57.233-57.233 57.233c-31.609 0-57.233-25.624-57.233-57.233s25.624-57.233 57.233-57.233z" />
<glyph unicode="&#xe91e;" glyph-name="extension" d="M874 468.667q44 0 76-31t32-75-32-75-76-31h-64v-172q0-34-25-59t-59-25h-162v64q0 48-34 81t-82 33-82-33-34-81v-64h-162q-34 0-59 25t-25 59v162h64q48 0 81 34t33 82-33 82-81 34h-64v162q0 34 25 59t59 25h172v64q0 44 31 76t75 32 75-32 31-76v-64h172q34 0 59-25t25-59v-172h64z" />
<glyph unicode="&#xe91f;" glyph-name="flag" d="M614 682.667h240v-426h-300l-16 84h-240v-298h-84v726h384z" />
<glyph unicode="&#xe920;" glyph-name="close-circle" d="M512 810.667c200.295 0 362.667-162.371 362.667-362.667s-162.371-362.667-362.667-362.667c-200.295 0-362.667 162.371-362.667 362.667s162.371 362.667 362.667 362.667zM437.989 589.496c-16.662 16.662-43.677 16.662-60.34 0v0l-7.146-7.146c-16.662-16.662-16.662-43.677 0-60.34v0l74.022-73.993-74.022-74.028c-16.662-16.662-16.662-43.677 0-60.34v0l7.146-7.145c16.662-16.662 43.677-16.662 60.34 0v0l73.993 74.057 74.028-74.057c16.662-16.662 43.677-16.662 60.34 0v0l7.145 7.145c16.662 16.662 16.662 43.677 0 60.34v0l-74.057 74.028 74.057 73.993c16.662 16.662 16.662 43.677 0 60.34v0l-7.145 7.146c-16.662 16.662-43.677 16.662-60.34 0v0l-74.028-74.022z" />
<glyph unicode="&#xe921;" glyph-name="clock" d="M653.526 832c23.564 0 42.667-19.103 42.667-42.667v-6.015c0-23.564-19.103-42.667-42.667-42.667l-95.878 0.042 0.030-27.484c155.11-21.742 275.262-152.599 280.346-312.462l0.168-10.556c0-180.13-146.061-326.192-326.192-326.192-180.493 0-326.192 146.061-326.192 326.192 0 164.628 122.003 300.799 280.513 323.018l-0.023 27.484-95.825-0.042c-23.564 0-42.667 19.103-42.667 42.667v6.015c0 23.564 19.103 42.667 42.667 42.667h283.052zM514.825 577.016c-21.664 0-39.226-17.562-39.226-39.226v-180.902l136.96-86.226c18.541-11.673 42.992-6.611 55.375 11.464 11.766 17.175 7.382 40.636-9.793 52.402-0.414 0.284-0.834 0.56-1.26 0.827l-102.83 64.565v137.872c0 21.664-17.562 39.226-39.226 39.226z" />
<glyph unicode="&#xe922;" glyph-name="close" d="M265.584 726.248c16.662 16.662 43.677 16.662 60.34 0v0l186.077-186.089 186.076 186.089c15.381 15.381 39.583 16.564 56.32 3.549l4.020-3.549 31.832-31.832c16.662-16.662 16.662-43.677 0-60.34v0l-186.088-186.077 186.088-186.076c15.381-15.381 16.564-39.583 3.549-56.32l-3.549-4.020-31.832-31.832c-16.662-16.662-43.677-16.662-60.34 0v0l-186.076 186.088-186.077-186.088c-15.381-15.381-39.583-16.564-56.32-3.549l-4.020 3.549-31.832 31.832c-16.662 16.662-16.662 43.677 0 60.34v0l186.089 186.076-186.089 186.077c-15.381 15.381-16.564 39.583-3.549 56.32l3.549 4.020z" />
<glyph unicode="&#xe923;" glyph-name="connect" d="M840.22 635.34c31.893 0 57.748-25.854 57.748-57.748v0-535.852c0-6.479-2.945-12.607-8.003-16.656-9.199-7.362-22.624-5.873-29.986 3.326v0l-90.384 112.936c-16.194 20.235-40.707 32.013-66.624 32.013v0h-363.23c-31.893 0-57.748 25.854-57.748 57.748s25.854 57.748 57.748 57.748v0h314.731c70.692 0 128 57.308 128 128v0 160.738c0 31.893 25.854 57.748 57.748 57.748zM620.142 789.333c47.128 0 85.333-38.205 85.333-85.333v0-252.816c0-47.128-38.205-85.333-85.333-85.333v0h-297.145c-25.917 0-50.43-11.779-66.624-32.013v0l-90.384-112.936c-4.049-5.059-10.177-8.003-16.656-8.003-11.782 0-21.333 9.551-21.333 21.333v0 469.768c0 47.128 38.205 85.333 85.333 85.333v0z" />
<glyph unicode="&#xe924;" glyph-name="conversion-reset" d="M714.952 850.404c4.128 7.546 15.318 6.336 17.737-1.918l78.064-266.355c1.5-5.118-1.433-10.482-6.551-11.982l-266.436-78.070c-8.255-2.419-15.314 6.351-11.187 13.898l59.79 109.341c-20.31 7.068-41.593 11.199-63.17 12.23l-11.178 0.269c-124.852 0-226.056-101.207-226.056-226.056 0-124.837 101.192-226.013 226.056-226.013 121.741 0 221.493 96.425 225.859 217.547l0.155 8.64c0.095 5.264 4.389 9.482 9.654 9.482h115.866c5.333 0 9.656-4.323 9.656-9.656 0-199.485-161.705-361.19-361.19-361.19-199.519 0-361.233 161.696-361.233 361.19 0 199.504 161.724 361.233 361.233 361.233 48.385 0 95.773-9.584 139.771-28.058l63.16 115.467z" />
<glyph unicode="&#xe925;" glyph-name="copy" d="M797.845 695.956c21.058 0 38.128-17.070 38.128-38.128v0-453.875c0-63.173-51.211-114.384-114.384-114.384v0h-380.967c-21.058 0-38.128 17.070-38.128 38.128s17.070 38.128 38.128 38.128v0h380.967c21.058 0 38.128 17.070 38.128 38.128v0 453.875c0 21.058 17.070 38.128 38.128 38.128zM592.802 806.431c47.128 0 85.333-38.205 85.333-85.333v-397.592c0-47.128-38.205-85.333-85.333-85.333h-319.441c-47.128 0-85.333 38.205-85.333 85.333v397.592c0 47.128 38.205 85.333 85.333 85.333h319.441z" />
<glyph unicode="&#xe926;" glyph-name="customers" d="M128 789.333c0 47.128 38.205 85.333 85.333 85.333h85.333c47.128 0 85.333-38.205 85.333-85.333v-42.667h426.667c47.128 0 85.333-38.205 85.333-85.333v-469.333c0-47.128-38.205-85.333-85.333-85.333h-597.333c-47.128 0-85.333 38.205-85.333 85.333v597.333zM512 380.991c-70.91 0-210.324-34.509-218.708-103.029l-0.396-6.523v-15.439l0.287-4.976c2.275-19.587 17.816-35.129 37.404-37.404l4.976-0.287 357.85 0.287c19.587 2.275 35.129 17.816 37.404 37.404l0.287 4.976v15.439l-0.396 6.523c-8.384 68.519-147.798 103.029-218.708 103.029zM512 640c-60.527 0-109.552-49.024-109.552-109.552s49.024-109.552 109.552-109.552c60.527 0 109.552 49.024 109.552 109.552s-49.024 109.552-109.552 109.552z" />
<glyph unicode="&#xe927;" glyph-name="dashboard" d="M384 405.333c47.128 0 85.333-38.205 85.333-85.333v0-128c0-47.128-38.205-85.333-85.333-85.333v0h-128c-47.128 0-85.333 38.205-85.333 85.333v0 128c0 47.128 38.205 85.333 85.333 85.333v0zM768 405.333c47.128 0 85.333-38.205 85.333-85.333v0-128c0-47.128-38.205-85.333-85.333-85.333v0h-128c-47.128 0-85.333 38.205-85.333 85.333v0 128c0 47.128 38.205 85.333 85.333 85.333v0zM384 789.333c47.128 0 85.333-38.205 85.333-85.333v0-128c0-47.128-38.205-85.333-85.333-85.333v0h-128c-47.128 0-85.333 38.205-85.333 85.333v0 128c0 47.128 38.205 85.333 85.333 85.333v0zM768 789.333c47.128 0 85.333-38.205 85.333-85.333v0-128c0-47.128-38.205-85.333-85.333-85.333v0h-128c-47.128 0-85.333 38.205-85.333 85.333v0 128c0 47.128 38.205 85.333 85.333 85.333v0z" />
<glyph unicode="&#xe928;" glyph-name="date-big" d="M851.422 494.999v-317.448c0-44.986-34.811-81.842-78.965-85.099l-6.369-0.234h-508.177c-44.986 0-81.842 34.811-85.099 78.965l-0.234 6.369v317.448h678.843zM717.010 323.178h-52.261c-23.564 0-42.667-19.103-42.667-42.667v-41.385c0-23.564 19.103-42.667 42.667-42.667h52.261c23.564 0 42.667 19.103 42.667 42.667v41.385c0 23.564-19.103 42.667-42.667 42.667zM343.818 803.782c28.499 0 51.939-21.659 54.757-49.414l0.284-5.628v-12.375c0-21.881 16.471-39.915 37.691-42.38l4.976-0.287h140.948c21.881 0 39.915 16.471 42.38 37.691l0.287 4.976v12.375c0 28.499 21.659 51.939 49.414 54.757l5.628 0.284h3.058c28.499 0 51.939-21.659 54.757-49.414l0.284-5.628v-12.375c0-21.881 16.471-39.915 37.691-42.38l4.976-0.287h13.904c29.29 0 53.381-22.26 56.278-50.786l0.292-5.784v-53.512h-678.843v53.512c0 29.29 22.26 53.381 50.786 56.278l5.784 0.292h13.904c21.881 0 39.915 16.471 42.38 37.691l0.287 4.976v12.375c0 28.499 21.659 51.939 49.414 54.757l5.628 0.284h3.058z" />
<glyph unicode="&#xe929;" glyph-name="date-o" d="M667.315 749.511c23.564 0 42.667-19.103 42.667-42.667v0l-0.023-41.387 6.098-0.247c44.154-3.258 78.965-40.113 78.965-85.099v-358.4c0-47.128-38.205-85.333-85.333-85.333h-395.378c-47.128 0-85.333 38.205-85.333 85.333v358.4c0 47.042 38.065 85.193 85.075 85.333l-0.034 41.4c0 23.564 19.103 42.667 42.667 42.667s42.667-19.103 42.667-42.667v0l-0.006-41.387h77.355l0.037 41.387c0 21.881 16.471 39.915 37.691 42.38l4.976 0.287c23.564 0 42.667-19.103 42.667-42.667v0l-0.037-41.387h62.592l0.023 41.387c0 21.881 16.471 39.915 37.691 42.38zM709.689 580.111h-395.378v-358.4h395.378v358.4zM636.095 389.241c23.564 0 42.667-19.103 42.667-42.667v-46.458c0-23.564-19.103-42.667-42.667-42.667h-46.458c-23.564 0-42.667 19.103-42.667 42.667v46.458c0 23.564 19.103 42.667 42.667 42.667h46.458z" />
<glyph unicode="&#xe92a;" glyph-name="globe" d="M764 196.667q90 96 90 230 0 106-59 192t-155 124v-18q0-34-26-59t-60-25h-84v-86q0-18-13-30t-31-12h-84v-86h256q18 0 30-12t12-30v-128h42q60 0 82-60zM470 88.667v82q-34 0-60 26t-26 60v42l-204 204q-10-40-10-76 0-130 87-226t213-112zM512 852.667q176 0 301-125t125-301-125-301-301-125-301 125-125 301 125 301 301 125z" />
<glyph unicode="&#xe92b;" glyph-name="local-florist" d="M512 704.667q-44 0-75-32t-31-76 31-75 75-31 75 31 31 75-31 76-75 32zM238 500.667q0 66 62 96-62 30-62 96 0 44 32 76t76 32q30 0 60-20v8q0 44 31 76t75 32 75-32 31-76v-8q32 20 60 20 44 0 76-32t32-76q0-66-62-96 62-30 62-96 0-44-32-75t-76-31q-34 0-60 18v-8q0-44-31-75t-75-31-75 31-31 75v8q-28-18-60-18-44 0-76 31t-32 75zM512 0.667q-160 0-272 113t-112 271q160 0 272-113t112-271zM512 0.667q0 158 112 271t272 113q0-158-112-271t-272-113z" />
<glyph unicode="&#xe92c;" glyph-name="download" d="M853.752 174.846c11.782 0 21.333-9.551 21.333-21.333v0-50.863c0-11.782-9.551-21.333-21.333-21.333v0h-683.504c-11.782 0-21.333 9.551-21.333 21.333v0 50.863c0 11.782 9.551 21.333 21.333 21.333v0zM601.532 814.684c32.965 0 59.688-18.062 59.688-40.343l-0.011-306.367 99.259-0.023c5.399 0 10.543-2.044 14.446-5.635l2.679-2.976c6.246-8.407 5.383-19.899-1.528-27.284l-2.873-2.563-235.746-175.15c-13.596-10.102-31.704-11.112-46.203-3.030l-4.688 3.030-235.746 175.15c-5.417 4.025-8.611 10.376-8.611 17.124 0 10.473 7.547 19.183 17.499 20.99l3.835 0.344 99.225 0.023 0.023 306.367c0 22.281 26.723 40.343 59.688 40.343h179.064z" />
<glyph unicode="&#xe92d;" glyph-name="emoji" d="M512 800c194.404 0 352-157.596 352-352s-157.596-352-352-352c-194.404 0-352 157.596-352 352s157.596 352 352 352zM645.189 395.443c-15.763 0-28.541-12.778-28.541-28.541 0-41.192-45.607-77.504-104.649-77.504s-104.649 36.312-104.649 77.504c0 15.763-12.778 28.541-28.541 28.541s-28.541-12.778-28.541-28.541c0-75.942 73.655-134.585 161.73-134.585s161.73 58.644 161.73 134.585c0 15.763-12.778 28.541-28.541 28.541zM395.678 617.357c-31.95 0-57.85-25.901-57.85-57.85s25.901-57.85 57.85-57.85c31.95 0 57.85 25.901 57.85 57.85s-25.901 57.85-57.85 57.85zM629.38 617.357c-31.95 0-57.85-25.901-57.85-57.85s25.901-57.85 57.85-57.85c31.95 0 57.85 25.901 57.85 57.85s-25.901 57.85-57.85 57.85z" />
<glyph unicode="&#xe92e;" glyph-name="events" d="M806.968 704.225h-16.327c-23.564 0-42.667 19.103-42.667 42.667v14.733c0 31.701-25.699 57.399-57.399 57.399h-3.189c-31.701 0-57.399-25.699-57.399-57.399v-14.733c0-23.564-19.103-42.667-42.667-42.667h-150.641c-23.564 0-42.667 19.103-42.667 42.667v14.733c0 31.701-25.699 57.399-57.399 57.399h-3.189c-31.701 0-57.399-25.699-57.399-57.399v-14.733c0-23.564-19.103-42.667-42.667-42.667h-16.327c-32.581 0-58.994-26.412-58.994-58.994v-482.921c0-47.128 38.205-85.333 85.333-85.333h537.257c47.128 0 85.333 38.205 85.333 85.333v482.921c0 32.581-26.412 58.994-58.994 58.994zM704.921 427.067c21.134 0 38.266-17.132 38.266-38.266s-17.132-38.266-38.266-38.266h-384.252c-21.134 0-38.266 17.132-38.266 38.266s17.132 38.266 38.266 38.266h384.252zM512 273.988c21.134 0 38.266-17.132 38.266-38.266s-17.132-38.266-38.266-38.266v0h-191.331c-21.134 0-38.266 17.132-38.266 38.266s17.132 38.266 38.266 38.266v0zM704.921 580.147c21.134 0 38.266-17.132 38.266-38.266s-17.132-38.266-38.266-38.266v0h-384.252c-21.134 0-38.266 17.132-38.266 38.266s17.132 38.266 38.266 38.266v0z" />
<glyph unicode="&#xe92f;" glyph-name="eye-off" d="M773.893 757.51c13.149 13.149 34.468 13.149 47.617 0s13.149-34.468 0-47.617v0l-77.154-77.206c60.407-54.556 107.895-123.088 135.732-184.687-57.89-128.104-200.775-286.197-368.088-286.197-64.44 0-125.257 23.451-178.99 59.609l-82.904-82.922c-13.149-13.149-34.468-13.149-47.617 0s-13.149 34.468 0 47.617v0l77.197 77.168c-60.427 54.562-107.932 123.112-135.775 184.726 57.89 128.104 200.775 286.197 368.088 286.197 64.44 0 125.257-23.451 178.99-59.609zM636.207 524.559l-43.211-43.215c4.22-10.272 6.546-21.53 6.546-33.345 0-48.44-39.102-87.543-87.543-87.543-11.831 0-23.104 2.332-33.388 6.564l-43.172-43.228c22.26-13.756 48.488-21.697 76.559-21.697 80.539 0 145.905 65.365 145.905 145.905 0 28.072-7.941 54.3-21.697 76.559zM512 593.905c-80.539 0-145.905-65.365-145.905-145.905 0-28.081 7.946-54.318 21.712-76.583l43.196 43.238c-4.22 10.272-6.546 21.53-6.546 33.345 0 48.44 39.102 87.543 87.543 87.543 11.82 0 23.085-2.328 33.361-6.553l43.222 43.203c-22.265 13.765-48.501 21.712-76.583 21.712z" />
<glyph unicode="&#xe930;" glyph-name="eye" d="M512 725.333c-162.131 0-300.59-153.197-356.687-277.333 56.097-124.137 194.557-277.333 356.687-277.333s300.59 153.197 356.688 277.333c-56.097 124.137-194.557 277.333-356.688 277.333zM512 306.614c-78.045 0-141.386 63.341-141.386 141.386s63.341 141.386 141.386 141.386c78.045 0 141.386-63.341 141.386-141.386s-63.341-141.386-141.386-141.386zM512 532.831c-46.94 0-84.831-37.891-84.831-84.831s37.891-84.831 84.831-84.831c46.94 0 84.831 37.891 84.831 84.831s-37.891 84.831-84.831 84.831z" />
<glyph unicode="&#xe931;" glyph-name="file" d="M570.648 789.333v-206.833l0.295-4.757c2.34-18.7 18.296-33.169 37.63-33.169v0h206.833v-352.574c0-47.128-38.205-85.333-85.333-85.333h-436.148c-47.128 0-85.333 38.205-85.333 85.333v512c0 47.128 38.205 85.333 85.333 85.333h276.722zM669.106 358.25l-324.105-0.295c-18.7-2.34-33.169-18.296-33.169-37.63 0-20.946 16.98-37.926 37.926-37.926v0l324.105 0.295c18.7 2.34 33.169 18.296 33.169 37.63 0 20.946-16.98 37.926-37.926 37.926v0zM673.922 765.345l115.47-111.652c9.677-9.357 16.903-20.768 21.252-33.232l-164.143-0.036 0.032 162.709c10.098-4.074 19.416-10.080 27.389-17.79z" />
<glyph unicode="&#xe932;" glyph-name="filter" d="M817.824 746.667c23.564 0 42.667-19.103 42.667-42.667 0-13.705-6.583-26.576-17.696-34.597l-238.848-172.337 0.003-365.859c0-23.564-19.103-42.667-42.667-42.667-8.689 0-17.171 2.653-24.312 7.604l-84.026 58.261c-11.497 7.972-18.355 21.073-18.355 35.063l-0.030 307.598-238.815 172.337c-19.107 13.791-23.417 40.46-9.626 59.567 8.021 11.113 20.892 17.696 34.597 17.696h597.109z" />
<glyph unicode="&#xe933;" glyph-name="forms-sales" d="M730.827 475.725c23.564 0 42.667-19.103 42.667-42.667v0l-0.032-260.301 45.945-0.023c21.881 0 39.915-16.471 42.38-37.691l0.287-4.976v-30.573c0-23.564-19.103-42.667-42.667-42.667v0h-648.74c-23.564 0-42.667 19.103-42.667 42.667v0 30.573c0 23.564 19.103 42.667 42.667 42.667v0l45.909 0.023 0.004 83.291c0 21.881 16.471 39.915 37.691 42.38l4.976 0.287h30.573c23.564 0 42.667-19.103 42.667-42.667v0l-0.028-83.291h104.619l0.006 169.168c0 21.881 16.471 39.915 37.691 42.38l4.976 0.287h30.573c23.564 0 42.667-19.103 42.667-42.667v0l-0.030-169.168h104.619l0.009 260.301c0 21.881 16.471 39.915 37.691 42.38l4.976 0.287zM717.83 874.667c21.881 0 39.915-16.471 42.38-37.691l0.287-4.976v-190.038c0-21.881-16.471-39.915-37.691-42.38l-4.976-0.287h-30.573c-21.881 0-39.915 16.471-42.38 37.691l-0.287 4.976-0.038 32.982-328.181-246.361c-17.693-12.652-41.762-9.853-56.14 5.729l-3.383 4.16-17.77 24.851c-12.445 17.405-9.963 41.042 5.073 55.52l4.019 3.42 315.059 236.521-35.437-0.024c-21.881 0-39.915 16.471-42.38 37.691l-0.287 4.976v30.573c0 21.881 16.471 39.915 37.691 42.38l4.976 0.287h190.038z" />
<glyph unicode="&#xe934;" glyph-name="forms-service" d="M841.591 267.050l-207.215 199.554c33.006 84.348 14.669 183.366-55.010 253.045-73.346 73.346-183.366 88.016-271.381 47.675l157.695-157.695-110.020-110.020-161.362 157.695c-44.008-88.016-25.671-198.035 47.675-271.381 69.679-69.679 168.697-88.016 253.045-55.010l209.193-201.458c16.588-15.975 42.861-15.903 59.361 0.163l78.188 76.13c16.883 16.439 17.243 43.451 0.804 60.334-0.319 0.328-0.644 0.65-0.973 0.968z" />
<glyph unicode="&#xe935;" glyph-name="full-page" d="M768 789.333c47.128 0 85.333-38.205 85.333-85.333v-512c0-47.128-38.205-85.333-85.333-85.333h-512c-5.378 0-10.64 0.497-15.742 1.449l377.87 378.021 0.009-178.364h94.815v267.428l-0.271 6.041c-3.052 33.824-31.48 60.329-66.099 60.329v0h-257.27v-94.815l155.387 0.009-372.24-372.25c-1.175 5.643-1.793 11.491-1.793 17.484v512c0 47.128 38.205 85.333 85.333 85.333h512z" />
<glyph unicode="&#xe936;" glyph-name="goal" d="M566.339 873.185l0.010-103.318c136.487-23.331 244.186-131.030 267.518-267.518l103.318-0.010v-111.254l-103.318-0.010c-23.331-136.487-131.030-244.186-267.518-267.518l-0.010-100.743h-111.254l-0.010 100.743c-136.487 23.331-244.186 131.030-267.518 267.518l-100.743 0.010v111.254l100.743 0.010c23.331 136.487 131.030 244.186 267.518 267.518l0.010 103.318h111.254zM510.712 658.75c-117.105 0-212.038-94.933-212.038-212.038s94.933-212.038 212.038-212.038c117.105 0 212.038 94.933 212.038 212.038s-94.933 212.038-212.038 212.038zM510.712 532.565c47.415 0 85.853-38.438 85.853-85.853s-38.438-85.853-85.853-85.853c-47.415 0-85.853 38.438-85.853 85.853s38.438 85.853 85.853 85.853z" />
<glyph unicode="&#xe937;" glyph-name="help" d="M512 725.333c-153.088 0-277.333-124.245-277.333-277.333s124.245-277.333 277.333-277.333c153.088 0 277.333 124.245 277.333 277.333s-124.245 277.333-277.333 277.333zM539.733 253.867h-55.467v55.467h55.467v-55.467zM597.141 468.8l-24.96-25.515c-19.968-20.245-32.448-36.885-32.448-78.485h-55.467v13.867c0 30.507 12.48 58.24 32.448 78.485l34.389 34.944c10.261 9.984 16.363 23.851 16.363 39.104 0 30.507-24.96 55.467-55.467 55.467s-55.467-24.96-55.467-55.467h-55.467c0 61.291 49.643 110.933 110.933 110.933s110.933-49.643 110.933-110.933c0-24.405-9.984-46.592-25.792-62.4z" />
<glyph unicode="&#xe938;" glyph-name="info" d="M512 789.333c188.513 0 341.333-152.82 341.333-341.333s-152.82-341.333-341.333-341.333c-188.513 0-341.333 152.82-341.333 341.333s152.82 341.333 341.333 341.333zM512 485.926c-20.946 0-37.926-16.98-37.926-37.926v-173.741c0-20.946 16.98-37.926 37.926-37.926s37.926 16.98 37.926 37.926v173.741c0 20.946-16.98 37.926-37.926 37.926zM512 653.519c-20.946 0-37.926-16.98-37.926-37.926v-18.537c0-20.946 16.98-37.926 37.926-37.926s37.926 16.98 37.926 37.926v18.537c0 20.946-16.98 37.926-37.926 37.926z" />
<glyph unicode="&#xe939;" glyph-name="items" d="M449.422 320c23.564 0 42.667-19.103 42.667-42.667v-85.333c0-23.564-19.103-42.667-42.667-42.667h-193.422c-23.564 0-42.667 19.103-42.667 42.667v85.333c0 23.564 19.103 42.667 42.667 42.667h193.422zM768 320c23.564 0 42.667-19.103 42.667-42.667v-85.333c0-23.564-19.103-42.667-42.667-42.667h-193.422c-23.564 0-42.667 19.103-42.667 42.667v85.333c0 23.564 19.103 42.667 42.667 42.667h193.422zM449.422 533.333c23.564 0 42.667-19.103 42.667-42.667v-85.333c0-23.564-19.103-42.667-42.667-42.667h-193.422c-23.564 0-42.667 19.103-42.667 42.667v85.333c0 23.564 19.103 42.667 42.667 42.667h193.422zM768 533.333c23.564 0 42.667-19.103 42.667-42.667v-85.333c0-23.564-19.103-42.667-42.667-42.667h-193.422c-23.564 0-42.667 19.103-42.667 42.667v85.333c0 23.564 19.103 42.667 42.667 42.667h193.422zM449.422 746.667c23.564 0 42.667-19.103 42.667-42.667v-85.333c0-23.564-19.103-42.667-42.667-42.667h-193.422c-23.564 0-42.667 19.103-42.667 42.667v85.333c0 23.564 19.103 42.667 42.667 42.667h193.422zM768 746.667c23.564 0 42.667-19.103 42.667-42.667v-85.333c0-23.564-19.103-42.667-42.667-42.667h-193.422c-23.564 0-42.667 19.103-42.667 42.667v85.333c0 23.564 19.103 42.667 42.667 42.667h193.422z" />
<glyph unicode="&#xe93a;" glyph-name="leaderboard" d="M369.778 554.667v-426.667h-170.667c-23.564 0-42.667 19.103-42.667 42.667v0 298.667c0 47.128 38.205 85.333 85.333 85.333v0h128zM533.333 768c47.128 0 85.333-38.205 85.333-85.333v0-554.667h-213.333v554.667c0 47.128 38.205 85.333 85.333 85.333v0zM782.222 375.325c47.128 0 85.333-38.205 85.333-85.333v0-119.325c0-23.564-19.103-42.667-42.667-42.667v0h-170.667v247.325z" />
<glyph unicode="&#xe93b;" glyph-name="leads" d="M715.676 397.337l2.264-0.345 13.42-4.015c127.538-38.945 191.307-82.826 191.307-131.644v0-37.333c0-41.237-33.429-74.667-74.667-74.667v0h-32c-23.564 0-42.667 19.103-42.667 42.667v0 69.333c0 35.866-21.333 76.401-64 121.605-2.081 2.205-2.837 5.348-1.985 8.258 1.324 4.525 6.066 7.12 10.591 5.796zM400 410.667c99.68 0 298.667-50.027 298.667-149.333v0-26.667c0-47.128-38.205-85.333-85.333-85.333v0h-426.667c-47.128 0-85.333 38.205-85.333 85.333v0 26.667c0 99.307 198.987 149.333 298.667 149.333zM400 746.667c82.475 0 149.333-66.859 149.333-149.333s-66.859-149.333-149.333-149.333c-82.475 0-149.333 66.859-149.333 149.333s66.859 149.333 149.333 149.333zM624 746.667l8.197-0.221c78.691-4.252 141.137-69.356 141.137-149.112 0-82.507-66.827-149.333-149.333-149.333v0c-4.933 0-9.803 1.112-14.247 3.253-16.329 7.868-23.189 27.484-15.32 43.814v0l5.619 12.067c15.965 35.588 23.948 65.655 23.948 90.199 0 27.272-9.855 61.361-29.567 102.266-2.141 4.444-3.253 9.314-3.253 14.247 0 18.126 14.694 32.82 32.82 32.82v0z" />
<glyph unicode="&#xe93c;" glyph-name="level-access" d="M831.594 269.986l-207.215 199.554c33.006 84.348 14.669 183.366-55.010 253.045-73.346 73.346-183.366 88.016-271.381 47.675l157.695-157.695-110.020-110.020-161.362 157.695c-44.008-88.016-25.671-198.035 47.675-271.381 69.679-69.679 168.697-88.016 253.045-55.010l209.193-201.458c16.588-15.975 42.861-15.903 59.361 0.163l78.188 76.13c16.883 16.439 17.243 43.451 0.804 60.334-0.319 0.328-0.644 0.65-0.973 0.968z" />
<glyph unicode="&#xe93d;" glyph-name="full-page-small" d="M327.111 604.444c31.419 0 56.889-25.47 56.889-56.889v-199.111c0-31.419-25.47-56.889-56.889-56.889h-199.111c-7.86 0-15.348 1.594-22.158 4.477l155.138 155.188v-81.738h43.457v122.571l-0.178 3.315c-1.652 15.241-14.561 27.105-30.241 27.105v0h-117.915v-43.457l71.228 0.022-152.026-152.070c-2.703 6.627-4.193 13.877-4.193 21.476v199.111c0 31.419 25.47 56.889 56.889 56.889h199.111z" />
<glyph unicode="&#xe93e;" glyph-name="logo" d="M1061.376 953.19l1.792-1.69 81.101-82.278c10.598-10.752 11.11-27.904 1.638-39.322l-1.638-1.843-146.79-133.12c-5.376-5.478-8.397-12.902-8.397-20.634v-626.79c0-46.95-36.557-85.299-82.432-87.194l-3.174-0.102-817.459-3.738c-46.438 0-84.275 37.325-86.016 83.968v832c0 47.104 36.762 85.504 82.79 87.194l3.226 0.102h655.872c12.8 0 19.2-15.667 10.189-24.832l-130.765-132.71c-10.752-10.906-25.344-16.998-40.55-16.998h-394.394c-7.373 0-13.414-5.632-14.234-12.851l-0.102-1.792v-625.408c0-7.475 5.53-13.619 12.646-14.49l1.69-0.102h616.346c7.373 0 13.414 5.632 14.234 12.851l0.102 1.741v349.133c0 6.451-7.68 9.728-12.237 5.12l-205.568-208.64c-8.090-8.192-18.534-12.442-29.082-12.749h-3.43c-10.598 0.307-21.043 4.608-29.133 12.749l-207.77 210.842c-16.794 17.050-16.794 44.698 0 61.747l60.826 61.696c16.794 17.050 44.032 17.050 60.826 0l116.941-118.682 454.195 445.133c10.598 10.752 27.443 11.264 38.707 1.69z" />
<glyph unicode="&#xe93f;" glyph-name="lock" d="M702.448 581.614v38.175c0 105.364-85.513 190.877-190.877 190.877s-190.877-85.513-190.877-190.877v-38.175h-47.335c-47.128 0-85.333-38.205-85.333-85.333v-325.614c0-47.128 38.205-85.333 85.333-85.333h477.281c47.128 0 85.333 38.205 85.333 85.333v325.614c0 47.128-38.205 85.333-85.333 85.333h-48.192zM511.571 253.227c-41.993 0-76.351 34.358-76.351 76.351s34.358 76.351 76.351 76.351c41.993 0 76.351-34.358 76.351-76.351s-34.358-76.351-76.351-76.351zM611.33 581.614h-197.769v14.558c0 65.28 32.731 118.344 98.011 118.344s99.758-53.064 99.758-118.344v-14.558z" />
<glyph unicode="&#xe940;" glyph-name="logout" d="M291.577 721.595l97.685-119.392-14.924-12.211c-54.848-44.876-80.836-99.682-80.836-170.459 0-61.577 20.66-111.725 63.717-154.782s93.205-63.717 154.782-63.717c61.577 0 111.725 20.66 154.782 63.717s63.717 93.205 63.717 154.782c0 70.512-25.747 124.397-80.177 167.941v0l-15.057 12.046 96.367 120.459 15.057-12.046c91.067-72.853 138.073-171.079 138.073-288.4 0-102.446-36.881-191.844-108.899-263.862s-161.415-108.899-263.862-108.899c-102.446 0-191.844 36.881-263.862 108.899s-108.899 161.415-108.899 263.862c0 117.051 46.761 215.68 137.414 289.851v0l14.924 12.211zM546.465 849.227c23.564 0 42.667-19.103 42.667-42.667v0-333.039c0-23.564-19.103-42.667-42.667-42.667v0h-68.929c-23.564 0-42.667 19.103-42.667 42.667v0 333.039c0 23.564 19.103 42.667 42.667 42.667v0z" />
<glyph unicode="&#xe941;" glyph-name="menu" d="M748.747 313.6c23.564 0 42.667-19.103 42.667-42.667v0-4.267c0-23.564-19.103-42.667-42.667-42.667v0h-473.494c-23.564 0-42.667 19.103-42.667 42.667v0 4.267c0 23.564 19.103 42.667 42.667 42.667v0zM748.747 492.8c23.564 0 42.667-19.103 42.667-42.667v0-4.267c0-23.564-19.103-42.667-42.667-42.667v0h-473.494c-23.564 0-42.667 19.103-42.667 42.667v0 4.267c0 23.564 19.103 42.667 42.667 42.667v0zM748.747 672c23.564 0 42.667-19.103 42.667-42.667v0-4.267c0-23.564-19.103-42.667-42.667-42.667v0h-473.494c-23.564 0-42.667 19.103-42.667 42.667v0 4.267c0 23.564 19.103 42.667 42.667 42.667v0z" />
<glyph unicode="&#xe942;" glyph-name="messages" d="M799.981 746.693h-575.635c-47.107-0.053-85.304-38.226-85.387-85.333l-0.267-426.673c-0.083-47.128 38.098-85.357 85.227-85.387 0.018 0 0.036 0 0.053 0.053h576.008c47.128 0 85.333 38.205 85.333 85.333v426.673c0 47.128-38.205 85.333-85.333 85.333zM800.62 571.885l-243.417-152.135c-27.671-17.294-62.782-17.294-90.453 0l-243.417 152.135c-6.237 3.898-10.027 10.735-10.027 18.091v36.093c0 11.782 9.551 21.333 21.333 21.333 3.998 0 7.916-1.124 11.307-3.243l243.417-152.135c13.836-8.647 31.391-8.647 45.227 0l243.417 152.135c9.991 6.244 23.153 3.207 29.397-6.784 2.119-3.391 3.243-7.308 3.243-11.307v-36.093c0-7.356-3.789-14.192-10.027-18.091z" />
<glyph unicode="&#xe943;" glyph-name="minus-circle" d="M726 384.667v84h-428v-84h428zM512 852.667q176 0 301-125t125-301-125-301-301-125-301 125-125 301 125 301 301 125z" />
<glyph unicode="&#xe944;" glyph-name="minus-circle-outline" d="M512 84.667q140 0 241 101t101 241-101 241-241 101-241-101-101-241 101-241 241-101zM512 852.667q176 0 301-125t125-301-125-301-301-125-301 125-125 301 125 301 301 125zM298 468.667h428v-84h-428v84z" />
<glyph unicode="&#xe945;" glyph-name="money-coin" d="M512 832c-211.968 0-384-172.032-384-384s172.032-384 384-384c211.968 0 384 172.032 384 384s-172.032 384-384 384zM566.144 214.144v-22.080c0-28.312-22.952-51.264-51.264-51.264s-51.264 22.952-51.264 51.264v22.848c-65.664 13.824-121.344 56.064-125.568 130.56h75.264c3.84-40.32 31.488-71.808 101.76-71.808 75.264 0 92.16 37.632 92.16 61.056 0 31.872-16.896 61.824-102.528 82.176-95.232 23.040-160.512 62.208-160.512 140.928 0 66.048 53.376 109.056 119.424 123.264v22.848c0 28.312 22.952 51.264 51.264 51.264s51.264-22.952 51.264-51.264v-23.616c71.424-17.28 107.136-71.424 109.44-130.176h-75.264c-1.92 42.624-24.576 71.808-85.248 71.808-57.6 0-92.16-26.112-92.16-62.976 0-32.256 24.96-53.376 102.528-73.344s160.512-53.376 160.512-150.144c-0.384-70.272-52.992-108.672-119.808-121.344z" />
<glyph unicode="&#xe946;" glyph-name="money-pile" d="M413.303 652.834c62.007 0 119.13-20.148 165.76-53.918v0h272.185c23.692 0 42.43-19.068 42.43-42.591v0-6.437c0-23.161-19.139-42.591-42.749-42.591v0h-190.322c19.804-35.525 31.939-75.782 34.8-118.634v0h155.219c24.006 0 43.014-19.060 43.014-42.573v0-6.435c0-23.151-19.211-42.573-42.908-42.573v0h-164.177c-11.944-44.989-34.61-85.437-65.174-118.672v0h229.719c23.827 0 42.541-19.060 42.541-42.573v0-6.435c0-23.151-19.076-42.553-42.606-42.53v0l-447.156 0.453c-151.87 4.999-273.557 129.395-273.557 282.524 0 156.297 126.724 282.982 282.982 282.982zM424.379 553.683h-18.418c-11.86 0-21.437-9.409-21.437-21.015v0-23.081c-39.613-8.575-71.52-34.345-71.52-73.784 0-47.187 39.047-70.65 96.028-84.362 51.105-12.232 61.291-30.21 61.291-49.233 0-14.104-10.012-36.565-55.153-36.565-42.094 0-58.635 18.805-60.899 42.921v0h-44.923c2.438-44.749 35.956-69.866 75.177-78.268v0-23.195c0-11.721 9.597-21.119 21.437-21.119v0h18.418c11.86 0 21.437 9.372 21.437 20.932v0 22.99c39.83 7.531 71.52 30.645 71.52 72.522 0 58.026-49.668 77.832-96.028 89.89s-61.291 24.508-61.291 43.922c0 22.244 20.633 37.784 55.153 37.784 36.348 0 49.842-17.369 51.061-42.877v0h45.141c-1.393 35.129-22.853 67.385-65.557 77.832v0 23.4c0 11.824-9.597 21.305-21.437 21.305v0zM850.679 809.13c24.205 0 42.962-19.060 42.962-42.573v0-6.435c0-23.151-19.235-42.573-42.962-42.573v0h-407.922c-24.205 0-42.962 19.060-42.962 42.573v0 6.435c0 23.151 19.235 42.573 42.962 42.573v0z" />
<glyph unicode="&#xe947;" glyph-name="edit" d="M592.393 661.246l132.673-132.673-366.304-366.304c-16.003-16.003-37.708-24.994-60.34-24.994v0h-75.994c-11.782 0-21.333 9.551-21.333 21.333v0 75.994c0 22.632 8.99 44.337 24.994 60.34v0l366.304 366.304zM660.463 728.589c33.346 32.543 86.632 32.321 119.706-0.498v0l11.496-11.408c33.398-33.14 33.67-87.061 0.608-120.536v0l-29.351-29.718-132.673 132.673z" />
<glyph unicode="&#xe948;" glyph-name="mood" d="M512 192.667q-74 0-133 41t-85 107h436q-26-66-85-107t-133-41zM362 468.667q-26 0-45 19t-19 45 19 45 45 19 45-19 19-45-19-45-45-19zM662 468.667q-26 0-45 19t-19 45 19 45 45 19 45-19 19-45-19-45-45-19zM512 84.667q140 0 241 101t101 241-101 241-241 101-241-101-101-241 101-241 241-101zM512 852.667q176 0 301-125t125-301-125-301-301-125-301 125-125 301 125 301 301 125z" />
<glyph unicode="&#xe949;" glyph-name="mood-bad" d="M512 340.667q74 0 133-41t85-107h-436q26 66 85 107t133 41zM362 468.667q-26 0-45 19t-19 45 19 45 45 19 45-19 19-45-19-45-45-19zM662 468.667q-26 0-45 19t-19 45 19 45 45 19 45-19 19-45-19-45-45-19zM512 84.667q140 0 241 101t101 241-101 241-241 101-241-101-101-241 101-241 241-101zM512 852.667q176 0 301-125t125-301-125-301-301-125-301 125-125 301 125 301 301 125z" />
<glyph unicode="&#xe94a;" glyph-name="opportunity" d="M819.526 795.733c46.487 0 84.999-38.18 84.999-85.278v0-524.911c0-46.896-38.055-85.278-84.999-85.278v0h-262.465v105.209c11.172 1.416 21.793 3.501 31.824 6.333 20.534 5.822 38.039 14.122 52.594 24.979 14.516 10.818 25.727 24.114 33.594 39.927 7.907 15.774 11.841 33.791 11.841 53.971 0 18.961-3.265 35.876-9.756 50.824-6.53 14.948-16.168 28.402-28.913 40.439-12.745 11.998-28.638 22.698-47.677 32.178s-41.068 18.095-66.126 25.884c-29.896 8.851-52.594 18.371-68.054 28.598-15.46 10.188-23.209 22.894-23.209 38.039 0 7.356 1.534 14.319 4.602 20.809 3.029 6.53 7.592 12.234 13.571 17.072s13.571 8.615 22.737 11.369c9.126 2.714 19.944 4.091 32.335 4.091 12.824 0 23.996-1.652 33.476-4.878 9.48-3.265 17.387-7.867 23.681-13.729 6.333-5.901 11.014-12.942 14.043-21.164s4.602-17.151 4.602-26.828v0h94.685c0 20.613-3.973 39.613-11.998 56.961-7.985 17.387-19.354 32.375-34.106 45.002-14.712 12.627-32.493 22.462-53.342 29.503-9.598 3.265-19.826 5.586-30.408 7.317v0 123.559zM458.718 794.711v-126.627c-2.95-0.747-6.176-1.062-9.048-1.928-20.731-6.215-38.629-14.909-53.656-26.081-15.066-11.132-26.749-24.665-35.050-40.557-8.34-15.892-12.47-33.397-12.47-52.555 0-20.023 4.052-37.489 12.155-52.437 8.064-14.948 19.157-28.126 33.122-39.613 14.004-11.487 30.329-21.4 48.936-29.818 18.646-8.418 38.472-16.010 59.518-22.737 18.528-5.901 33.633-11.487 45.317-16.718 11.683-5.271 20.849-10.66 27.458-16.128 6.648-5.468 11.093-11.408 13.414-17.82 2.321-6.451 3.501-13.65 3.501-21.636 0-7.356-1.416-14.279-4.288-20.691-2.832-6.412-7.199-11.919-13.099-16.561s-13.375-8.261-22.383-10.896c-9.087-2.636-19.708-3.934-31.942-3.934-13.65 0-26.081 1.377-37.213 4.091-11.172 2.754-20.691 7.12-28.598 13.099-7.907 6.019-14.043 13.847-18.449 23.524s-6.648 21.478-6.648 35.364h-95.039c0-17.269 2.478-33.004 7.435-47.205s11.801-26.867 20.534-38.039c8.733-11.172 19-20.849 30.762-29.031 11.801-8.222 24.586-15.066 38.354-20.534 8.694-3.462 18.135-5.35 27.379-7.671v-111.306h-253.638c-47.279 0-85.605 38.325-85.605 85.152v524.139c0 47.028 38.256 85.152 85.605 85.152h253.638z" />
<glyph unicode="&#xe94b;" glyph-name="people" d="M365.714 411.429c85.211 0 256-42.789 256-128v0-48.762c0-23.564-19.103-42.667-42.667-42.667v0h-426.667c-23.564 0-42.667 19.103-42.667 42.667v0 48.762c0 85.211 170.789 128 256 128zM658.286 411.429c85.211 0 256-42.789 256-128v0-48.762c0-23.564-19.103-42.667-42.667-42.667v0h-134.095c-23.564 0-42.667 19.103-42.667 42.667v0 48.762c0 54.126-29.623 95.451-72.046 126.171 12.8 1.097 24.869 1.829 35.474 1.829zM658.286 704c60.709 0 109.349-49.006 109.349-109.714s-48.64-109.714-109.349-109.714c-60.709 0-109.714 49.006-109.714 109.714s49.006 109.714 109.714 109.714zM365.714 704c60.709 0 109.349-49.006 109.349-109.714s-48.64-109.714-109.349-109.714c-60.709 0-109.714 49.006-109.714 109.714s49.006 109.714 109.714 109.714z" />
<glyph unicode="&#xe94c;" glyph-name="percentage" d="M714.282 371.246c69.327 0 125.528-56.201 125.528-125.528s-56.201-125.528-125.528-125.528c-69.327 0-125.528 56.201-125.528 125.528s56.201 125.528 125.528 125.528zM712.853 745.641c16.662 16.662 43.677 16.662 60.34 0v0l36.448-36.448c16.662-16.662 16.662-43.677 0-60.34v0l-498.493-498.493c-16.662-16.662-43.677-16.662-60.34 0v0l-36.448 36.448c-16.662 16.662-16.662 43.677 0 60.34v0zM309.718 775.81c69.327 0 125.528-56.201 125.528-125.528s-56.201-125.528-125.528-125.528c-69.327 0-125.528 56.201-125.528 125.528s56.201 125.528 125.528 125.528z" />
<glyph unicode="&#xe94d;" glyph-name="person" d="M512 379.487c109.689 0 328.656-55.050 328.656-164.328v0-44.492c0-23.564-19.103-42.667-42.667-42.667v0h-571.978c-23.564 0-42.667 19.103-42.667 42.667v0 44.492c0 109.278 218.967 164.328 328.656 164.328zM512 768c90.791 0 164.328-73.537 164.328-164.328s-73.537-164.328-164.328-164.328c-90.791 0-164.328 73.537-164.328 164.328s73.537 164.328 164.328 164.328z" />
<glyph unicode="&#xe94e;" glyph-name="phone" d="M343.126 526.615c54.353-106.819 141.922-194.011 248.742-248.742l48.844 67.583c10.191 10.191 25.289 13.588 38.5 9.059 42.275-13.966 87.947-21.515 134.751-21.515 20.76 0 37.745-16.985 37.745-37.745v-155.815c0-20.76-16.985-37.745-37.745-37.745-354.429 0-641.67 287.242-641.67 641.67 0 20.76 16.985 37.745 37.745 37.745l148.053 13.193c20.76 0 37.745-16.985 37.745-37.745 0-47.182 7.549-92.476 21.515-134.751 4.152-13.211 1.132-27.932-9.436-38.5l-64.789-56.693z" />
<glyph unicode="&#xe94f;" glyph-name="plus-circle" d="M726 384.667v84h-172v172h-84v-172h-172v-84h172v-172h84v172h172zM512 852.667q176 0 301-125t125-301-125-301-301-125-301 125-125 301 125 301 301 125z" />
<glyph unicode="&#xe950;" glyph-name="plus-circle-o" d="M512 84.667q140 0 241 101t101 241-101 241-241 101-241-101-101-241 101-241 241-101zM512 852.667q176 0 301-125t125-301-125-301-301-125-301 125-125 301 125 301 301 125zM554 640.667v-172h172v-84h-172v-172h-84v172h-172v84h172v172h84z" />
<glyph unicode="&#xe951;" glyph-name="print" d="M693.607 808.854c21.073 0 38.155-17.083 38.155-38.155l-0.019-175.989 35.702-0.023c70.994 0 128.546-55.961 128.546-124.992v-257.797l-168.685 0.049 0.014-82.134c0-23.564-19.103-42.667-42.667-42.667h-345.306c-23.564 0-42.667 19.103-42.667 42.667l-0.010 82.134-168.661-0.049v257.797c0 69.031 57.552 124.992 128.546 124.992l44.424 0.023 0.009 175.989c0 21.073 17.083 38.155 38.155 38.155h354.462zM656.465 317.12h-279.763v-155.695h279.763l-0.029 50.522v-0.043l0.029 105.216zM772.23 520.839c-22.312 0-40.4-18.088-40.4-40.4s18.088-40.4 40.4-40.4c22.312 0 40.4 18.088 40.4 40.4s-18.088 40.4-40.4 40.4z" />
<glyph unicode="&#xe952;" glyph-name="projects" d="M583.86 789.333c39.687 0 71.86-32.173 71.86-71.86 0-37.598 28.875-68.452 65.659-71.596l3.692-0.16v-539.051h-420.693l0.051 539.388c33.89 3.757 60.671 31.082 63.589 65.218l0.264 6.2c0 37.598 28.875 68.452 65.659 71.596l6.2 0.264h143.719zM266.455 645.090v-537.9c-40.409 4.479-72.309 37.175-75.555 77.944l-0.272 6.866v368.281c0 43.915 33.173 80.082 75.827 84.81zM763.055 644.297c37.929-6.733 67.197-38.522 70.083-77.648l0.234-6.369v-368.281c0-42.005-30.35-76.921-70.317-84.016v536.314zM547.93 717.474h-71.86c-19.843 0-35.93-16.086-35.93-35.93s16.086-35.93 35.93-35.93v0h71.86c19.843 0 35.93 16.086 35.93 35.93s-16.086 35.93-35.93 35.93v0z" />
<glyph unicode="&#xe953;" glyph-name="reply" d="M443.858 626.91v127.696c0 11.782-9.551 21.333-21.333 21.333-5.966 0-11.66-2.498-15.7-6.889l-242.384-263.453c-15.023-16.329-15.023-41.447 0-57.776l242.384-263.453c7.977-8.671 21.473-9.233 30.144-1.256 4.391 4.040 6.889 9.733 6.889 15.7v145.754c209.507 0 337.526-111.213 442.28-257.868-39.108 275.907-148.97 498.311-442.28 540.212z" />
<glyph unicode="&#xe954;" glyph-name="reports" d="M789.333 810.667h-554.667c-47.128 0-85.333-38.205-85.333-85.333v-554.667c0-47.128 38.205-85.333 85.333-85.333h554.667c47.128 0 85.333 38.205 85.333 85.333v554.667c0 47.128-38.205 85.333-85.333 85.333zM512 216.827c-23.426 0-42.417 18.991-42.417 42.417v377.513c0 23.426 18.991 42.417 42.417 42.417s42.417-18.991 42.417-42.417v-377.513c0-23.426-18.991-42.417-42.417-42.417zM681.669 424.671c23.426 0 42.417-18.991 42.417-42.417v-123.010c0-23.426-18.991-42.417-42.417-42.417s-42.417 18.991-42.417 42.417v123.010c0 23.426 18.991 42.417 42.417 42.417zM342.331 551.922c23.426 0 42.417-18.991 42.417-42.417v-250.261c0-23.426-18.991-42.417-42.417-42.417s-42.417 18.991-42.417 42.417v250.261c0 23.426 18.991 42.417 42.417 42.417z" />
<glyph unicode="&#xe955;" glyph-name="request" d="M789.695 789.333c47.128 0 85.333-38.205 85.333-85.333v0-419.87c0-47.128-38.205-85.333-85.333-85.333v0h-409.829c-18.251 0-36.021-5.852-50.701-16.695v0l-124.489-91.957c-3.67-2.711-8.113-4.174-12.675-4.174-11.782 0-21.333 9.551-21.333 21.333v0 596.696c0 47.128 38.205 85.333 85.333 85.333v0zM517.138 393.831c-13.322 0-24.836-4.472-34.543-13.417s-14.559-19.698-14.559-32.259c0-12.561 4.758-23.314 14.274-32.259s20.935-13.417 34.257-13.417c13.322 0 24.836 4.472 34.543 13.417s14.559 19.698 14.559 32.259c0 12.561-4.853 23.314-14.559 32.259s-21.030 13.417-33.972 13.417zM525.702 708.997c-26.644 0-50.149-4.853-70.513-14.559s-36.255-23.409-47.675-41.109c-9.788-15.171-15.381-32.23-16.779-51.176l-0.35-9.63v-6.28c0-1.903 0.952-3.521 2.855-4.853 1.269-0.888 2.707-1.48 4.314-1.776l2.538-0.222 61.092-2.284c5.392 0 8.538 2.115 9.437 6.344l0.27 2.791v6.28c0 12.561 4.853 22.838 14.559 30.831s22.553 11.99 38.539 11.99c14.845 0 26.835-3.711 35.97-11.134s13.703-17.224 13.703-29.404c0-11.419-3.616-21.125-10.848-29.119s-18.27-17.129-33.115-27.406c-18.27-12.942-32.259-25.217-41.965-36.826-8.32-9.951-13.074-22.628-14.262-38.032l-0.297-7.929v-15.416c0-5.392 2.247-8.538 6.74-9.437l2.966-0.27h60.521c5.392 0 8.538 2.247 9.437 6.74l0.27 2.966v10.277c0 9.897 3.235 18.27 9.706 25.122s16.558 15.035 30.26 24.551c12.942 9.135 23.599 17.509 31.973 25.122s15.511 17.414 21.411 29.404c5.9 11.99 8.85 26.359 8.85 43.107 0 22.077-5.329 41.489-15.987 58.237s-25.788 29.785-45.391 39.11c-19.603 9.326-42.346 13.988-68.229 13.988z" />
<glyph unicode="&#xe956;" glyph-name="restaurant" d="M682 682.667q0 60 65 115t149 55v-852h-106v340h-108v342zM470 554.667v298h84v-298q0-68-46-117t-114-53v-384h-106v384q-68 4-114 53t-46 117v298h86v-298h84v298h86v-298h86z" />
<glyph unicode="&#xe957;" glyph-name="search" d="M499.946 787.116c160.878-19.753 275.282-166.184 255.528-327.061-5.678-46.242-21.821-88.644-45.765-125.124l158.092-158.146c16.662-16.662 16.662-43.677 0-60.34l-39.056-39.056c-16.662-16.662-43.677-16.662-60.34 0l-161.84 161.78c-52.378-29.115-114.121-42.505-178.153-34.643-160.878 19.753-275.282 166.184-255.528 327.061s166.184 275.282 327.061 255.528zM309.676 514.792c-10.477-85.33 50.203-162.996 135.532-173.474s162.996 50.203 173.474 135.532c10.477 85.33-50.203 162.996-135.532 173.474s-162.996-50.203-173.474-135.532z" />
<glyph unicode="&#xe958;" glyph-name="sent" d="M200.705 140.732l600.284 257.387c21.657 9.286 31.686 34.371 22.4 56.028-4.315 10.065-12.335 18.085-22.4 22.4l-600.284 257.387c-10.829 4.643-23.371-0.371-28.014-11.2-1.135-2.647-1.722-5.496-1.726-8.377l-0.244-170.875c-0.031-21.408 15.808-39.524 37.028-42.353l415.036-55.338c4.671-0.623 7.954-4.915 7.331-9.586-0.509-3.818-3.513-6.822-7.331-7.331l-415.036-55.338c-21.22-2.829-37.058-20.946-37.028-42.353l0.244-170.875c0.017-11.782 9.582-21.32 21.364-21.303 2.88 0.004 5.73 0.591 8.377 1.726z" />
<glyph unicode="&#xe959;" glyph-name="service" d="M341.333 789.333c20.859 0 37.926-17.067 37.926-37.926 0-47.407 7.585-92.919 21.618-135.396 4.172-13.274 1.138-28.065-9.481-38.305v0l-83.437-83.816c54.613-107.33 142.601-194.939 249.932-249.553v0l83.437 83.437c10.619 10.24 25.41 13.274 38.684 9.102 42.477-14.033 87.988-21.618 135.396-21.618 20.859 0 37.926-17.067 37.926-37.926v0-132.741c0-20.859-17.067-37.926-37.926-37.926-356.124 0-644.741 288.616-644.741 644.741 0 20.859 17.067 37.926 37.926 37.926v0zM810.667 789.333c23.564 0 42.667-19.103 42.667-42.667v0-180.148c0-23.564-19.103-42.667-42.667-42.667v0h-184.889l-113.778-113.778v336.593c0 23.564 19.103 42.667 42.667 42.667v0z" />
<glyph unicode="&#xe95a;" glyph-name="services" d="M815.206 746.667v-635.688l-81.677 39.656c-11.767 5.713-25.504 5.713-37.271 0l-63.041-30.608c-11.767-5.713-25.504-5.713-37.271 0l-63.041 30.608c-11.767 5.713-25.504 5.713-37.271 0l-63.041-30.608c-11.767-5.713-25.504-5.713-37.271 0l-63.041 30.608c-11.767 5.713-25.504 5.713-37.271 0l-81.677-39.656v635.688l84.305-34.121c10.267-4.155 21.748-4.155 32.015 0l68.297 27.642c10.267 4.155 21.748 4.155 32.015 0l68.297-27.642c10.267-4.155 21.748-4.155 32.015 0l68.297 27.642c10.267 4.155 21.748 4.155 32.015 0l68.297-27.642c10.267-4.155 21.748-4.155 32.015 0l84.305 34.121zM683.687 391.206h-338.836v-75.234h338.836v75.234zM683.687 541.674h-338.836v-75.234h338.836v75.234z" />
<glyph unicode="&#xe95b;" glyph-name="settings" d="M799.187 410.191c1.609 12.067 2.413 24.536 2.413 37.809 0 12.871-0.804 25.742-2.816 37.809l81.651 63.551c7.24 5.631 9.251 16.491 4.827 24.536l-77.227 133.538c-4.827 8.849-14.882 11.664-23.731 8.849l-96.131-38.613c-20.111 15.284-41.429 28.156-65.16 37.809l-14.48 102.164c-1.609 9.653-9.653 16.491-19.307 16.491h-154.453c-9.653 0-17.296-6.838-18.904-16.491l-14.48-102.164c-23.731-9.653-45.451-22.927-65.16-37.809l-96.131 38.613c-8.849 3.218-18.904 0-23.731-8.849l-76.824-133.538c-4.827-8.447-3.218-18.904 4.827-24.536l81.651-63.551c-2.011-12.067-3.62-25.34-3.62-37.809s0.804-25.742 2.816-37.809l-81.651-63.551c-7.24-5.631-9.251-16.491-4.827-24.536l77.227-133.538c4.827-8.849 14.882-11.664 23.731-8.849l96.131 38.613c20.111-15.284 41.429-28.156 65.16-37.809l14.48-102.164c2.011-9.653 9.653-16.491 19.307-16.491h154.453c9.653 0 17.698 6.838 18.904 16.491l14.48 102.164c23.731 9.653 45.451 22.524 65.16 37.809l96.131-38.613c8.849-3.218 18.904 0 23.731 8.849l77.227 133.538c4.827 8.849 2.816 18.904-4.827 24.536l-80.847 63.551zM512 332.16c-63.712 0-115.84 52.128-115.84 115.84s52.128 115.84 115.84 115.84c63.712 0 115.84-52.128 115.84-115.84s-52.128-115.84-115.84-115.84z" />
<glyph unicode="&#xe95c;" glyph-name="stage" d="M512 874.667c231.648 0 420.178-184.555 426.503-414.722l0.164-11.945c0-231.648-184.555-420.178-414.722-426.503l-11.945-0.164c-235.641 0-426.667 190.973-426.667 426.667 0 231.648 184.555 420.178 414.722 426.503l11.945 0.164zM696.941 635.461l-283.754-283.754-85.485 89.251c-16.299 17.018-43.308 17.6-60.326 1.3s-17.6-43.308-1.3-60.326l115.641-120.735c16.299-17.018 43.308-17.6 60.326-1.3 0.221 0.212 0.44 0.426 0.657 0.643l314.582 314.582c16.662 16.662 16.662 43.677 0 60.34s-43.677 16.662-60.34 0z" />
<glyph unicode="&#xe95d;" glyph-name="star-outline" d="M512 280.667l160-96-42 182 142 124-188 16-72 172-72-172-188-16 142-124-42-182zM938 544.667l-232-202 70-300-264 160-264-160 70 300-232 202 306 26 120 282 120-282z" />
<glyph unicode="&#xe95e;" glyph-name="tag-call" d="M384.739 512.215c40.96-80.498 106.951-146.204 187.449-187.449l36.808 50.93c7.68 7.68 19.058 10.24 29.013 6.827 31.858-10.524 66.276-16.213 101.547-16.213 15.644 0 28.444-12.8 28.444-28.444v-117.42c0-15.644-12.8-28.444-28.444-28.444-267.093 0-483.556 216.462-483.556 483.556 0 15.644 12.8 28.444 28.444 28.444l111.571 9.942c15.644 0 28.444-12.8 28.444-28.444 0-35.556 5.689-69.689 16.213-101.547 3.129-9.956 0.853-21.049-7.111-29.013l-48.824-42.723z" />
<glyph unicode="&#xe95f;" glyph-name="tag-closed" d="M512 740.038c161.288 0 292.038-130.75 292.038-292.038s-130.75-292.038-292.038-292.038c-161.288 0-292.038 130.75-292.038 292.038s130.75 292.038 292.038 292.038zM677.346 540.931l-258.277-258.277c27.462-15.468 59.166-24.292 92.931-24.292 104.734 0 189.638 84.904 189.638 189.638 0 33.765-8.824 65.468-24.292 92.931zM512 637.638c-104.734 0-189.638-84.904-189.638-189.638 0-33.765 8.824-65.468 24.292-92.93l258.277 258.277c-27.462 15.468-59.166 24.292-92.93 24.292z" />
<glyph unicode="&#xe960;" glyph-name="tag-comment" d="M716.8 688.227c28.277 0 51.2-22.923 51.2-51.2v0-289.102c0-28.277-22.923-51.2-51.2-51.2v0h-297.887c-27.158 0-53.204-10.789-72.408-29.992v0l-46.804-46.804c-4.801-4.801-11.312-7.498-18.102-7.498-14.138 0-25.6 11.462-25.6 25.6v0 398.996c0 28.277 22.923 51.2 51.2 51.2v0zM500.534 458.289h-123.363c-14.635 0-26.499-11.864-26.499-26.499s11.864-26.499 26.499-26.499v0h123.363c14.635 0 26.499 11.864 26.499 26.499s-11.864 26.499-26.499 26.499v0zM634.277 575.171h-257.106c-14.635 0-26.499-11.864-26.499-26.499s11.864-26.499 26.499-26.499v0h257.106c14.635 0 26.499 11.864 26.499 26.499s-11.864 26.499-26.499 26.499v0z" />
<glyph unicode="&#xe961;" glyph-name="tag-email" d="M740.786 672.020h-457.326c-28.264-0.032-51.182-22.936-51.232-51.2l-0.216-345.605c-0.050-28.277 22.859-51.214 51.136-51.232 0.011 0 0.021 0 0.032 0.032h457.606c28.277 0 51.2 22.923 51.2 51.2v345.605c0 28.277-22.923 51.2-51.2 51.2zM723.953 496.749l-157.699-98.562c-33.205-20.753-75.339-20.753-108.544 0l-157.699 98.562c-7.485 4.678-12.032 12.882-12.032 21.709v51.373c0 14.138 11.462 25.6 25.6 25.6 4.798 0 9.499-1.348 13.568-3.891l157.699-98.562c16.603-10.377 37.669-10.377 54.272 0l157.699 98.562c11.989 7.493 27.783 3.849 35.277-8.141 2.543-4.069 3.891-8.77 3.891-13.568v-51.373c0-8.827-4.547-17.031-12.032-21.709z" />
<glyph unicode="&#xe962;" glyph-name="tag" d="M473.6 800.479c21.12 0 40.32-8.448 54.144-22.272v0l345.6-345.6c13.824-13.824 22.656-33.024 22.656-54.528 0-21.12-8.448-40.32-22.656-54.144v0l-268.8-268.8c-13.824-13.824-33.024-22.656-54.144-22.656s-40.32 8.832-54.528 22.656v0l-345.216 345.6c-14.208 13.824-22.656 33.024-22.656 54.144v0 268.8c0 42.624 34.176 76.8 76.8 76.8v0zM317.047 671.786c-32.027 0-57.99-25.963-57.99-57.99s25.963-57.99 57.99-57.99c32.027 0 57.99 25.963 57.99 57.99s-25.963 57.99-57.99 57.99z" />
<glyph unicode="&#xe963;" glyph-name="tag-file" d="M533.459 704c13.579 0 26.602-5.394 36.204-14.996l140.674-140.674c9.602-9.602 14.996-22.625 14.996-36.204v-268.926c0-28.277-22.923-51.2-51.2-51.2h-324.267c-26.257-0.026-47.898 19.737-50.856 45.201l-0.316 5.999 0.228 409.6c0.044 28.266 22.963 51.172 51.228 51.2h183.308zM495.985 670.436c-1.92-1.92-2.999-4.525-2.999-7.241v-137.412c0-28.277 22.923-51.2 51.2-51.2h137.412c5.655 0 10.24 4.585 10.24 10.24 0 2.716-1.079 5.32-2.999 7.241l-178.372 178.372c-3.999 3.999-10.483 3.999-14.482 0z" />
<glyph unicode="&#xe964;" glyph-name="tag-project" d="M569.488 721.067c31.75 0 57.488-25.738 57.488-57.488 0-29.633 22.421-54.029 51.224-57.15l4.274-0.203 0.029-430.080c-2.688-0.416-5.41-0.728-8.162-0.931l-7.642-0.281h-309.396c-3.856 0-7.662 0.213-11.407 0.628l0.011 430.878c28.753 3.169 51.119 27.542 51.119 57.139 0 29.633 22.421 54.029 51.224 57.15l6.264 0.337h114.975zM315.56 605.335l0.031-421.549c-33.38 14.906-57.317 47.153-60.361 85.29l-0.328 8.258v257.697c0 35.712 26.344 65.271 60.658 70.305zM712.837 604.548c29.971-6.349 52.965-31.59 55.936-62.674l0.325-6.844v-257.697c0-39.958-22.887-74.57-56.266-91.444l0.005 418.658zM540.744 663.579h-57.488c-15.875 0-28.744-12.869-28.744-28.744s12.869-28.744 28.744-28.744v0h57.488c15.875 0 28.744 12.869 28.744 28.744s-12.869 28.744-28.744 28.744v0z" />
<glyph unicode="&#xe965;" glyph-name="tag-rating" d="M788.584 552.362l-166.585 14.365c-9.442 0.814-17.662 6.779-21.366 15.503l-65.051 153.252c-5.524 13.015-20.553 19.087-33.568 13.562-6.112-2.594-10.977-7.462-13.568-13.575l-65.076-153.542c-3.705-8.742-11.945-14.716-21.406-15.519l-166.35-14.113c-14.088-1.195-24.539-13.585-23.344-27.672 0.564-6.649 3.702-12.816 8.746-17.185l126.377-109.481c7.182-6.222 10.327-15.911 8.168-25.165l-37.948-162.669c-3.212-13.769 5.346-27.534 19.115-30.747 6.498-1.516 13.332-0.435 19.044 3.013l142.998 86.308c8.135 4.91 18.321 4.91 26.457 0l143.095-86.367c12.105-7.306 27.84-3.416 35.146 8.689 3.442 5.703 4.526 12.522 3.021 19.011l-37.746 162.795c-2.142 9.237 0.998 18.901 8.159 25.116l126.261 109.581c10.678 9.267 11.821 25.436 2.554 36.114-4.361 5.025-10.506 8.154-17.135 8.726z" />
<glyph unicode="&#xe966;" glyph-name="tag-reopened" d="M512 740.038c161.288 0 292.038-130.75 292.038-292.038s-130.75-292.038-292.038-292.038c-161.288 0-292.038 130.75-292.038 292.038s130.75 292.038 292.038 292.038zM419.84 570.862v-245.725l245.725 122.862-245.725 122.862z" />
<glyph unicode="&#xe967;" glyph-name="tag-return" d="M639.861 775.095l64.308-173.522c4.915-13.257-1.849-27.987-15.107-32.9-0.001 0-0.001 0-0.002 0.001l-173.576-64.316c-13.258-4.912-27.987 1.853-32.9 15.11-2.359 6.367-2.092 13.411 0.743 19.582l109.267 237.835c5.902 12.848 21.102 18.478 33.95 12.575 6.168-2.834 10.958-8.001 13.317-14.366zM629.473 655.799l-30.22-65.803-17.794 48.012 48.013 17.791z" />
<glyph unicode="&#xe968;" glyph-name="delete" d="M706.37 599.704c23.564 0 42.667-19.103 42.667-42.667v0-365.037c0-47.128-38.205-85.333-85.333-85.333v0h-284.444c-47.128 0-85.333 38.205-85.333 85.333v0 365.037c0 23.564 19.103 42.667 42.667 42.667v0zM562.661 789.333c34.342 0 67.278-13.642 91.561-37.926v0h94.815c20.946 0 37.926-16.98 37.926-37.926s-16.98-37.926-37.926-37.926v0h-455.111c-20.946 0-37.926 16.98-37.926 37.926s16.98 37.926 37.926 37.926v0h94.815l6.247 5.847c23.536 20.615 53.834 32.078 85.314 32.078v0z" />
<glyph unicode="&#xe969;" glyph-name="tag-stream" d="M528.855 721.067c3.758 0 7.47-0.827 10.873-2.424 12.8-6.005 18.308-21.249 12.303-34.049v0l-43.513-92.602h98.048l45.401 99.17c7.407 16.195 22.605 27.228 39.962 29.48l6.599 0.426h22.779c3.758 0 7.47-0.827 10.873-2.424 12.8-6.005 18.308-21.249 12.303-34.049v0l-43.505-92.602 62.657-0.020c12.568 0 23.020-9.056 25.188-20.998l0.412-4.602v-34.645c0-14.138-11.462-25.6-25.6-25.6v0l-102.9 0.003-47.462-101.12h96.216c12.568 0 23.020-9.056 25.188-20.998l0.412-4.602v-34.645c0-14.138-11.462-25.6-25.6-25.6v0l-136.459 0.034-46.729-99.675c-7.496-15.978-22.602-26.823-39.811-29.036l-6.541-0.418h-17.295c-3.674 0-7.306 0.791-10.647 2.319-12.858 5.88-18.514 21.070-12.633 33.928v0l42.419 92.882h-101.222l-46.721-99.675c-7.496-15.978-22.602-26.823-39.811-29.036l-6.541-0.418h-17.295c-3.674 0-7.306 0.791-10.647 2.319-12.858 5.88-18.514 21.070-12.633 33.928v0l42.411 92.882-58.931-0.034c-12.568 0-23.020 9.056-25.188 20.998l-0.412 4.602v34.645c0 14.138 11.462 25.6 25.6 25.6v0h98.202l46.234 101.12-90.289-0.003c-12.568 0-23.020 9.056-25.188 20.998l-0.412 4.602v34.645c0 14.138 11.462 25.6 25.6 25.6v0l129.559 0.020 45.409 99.17c7.407 16.195 22.605 27.228 39.962 29.48l6.599 0.426zM567.296 506.129h-99.021l-47.462-101.12h100.25l46.234 101.12z" />
<glyph unicode="&#xe96a;" glyph-name="talk" d="M875.368 688.585c35.415 0 64.124-28.709 64.124-64.124v0-601.731c0-6.479-2.945-12.607-8.003-16.656-9.199-7.362-22.624-5.873-29.986 3.326v0l-107.386 134.181c-16.194 20.235-40.707 32.013-66.624 32.013v0h-407.862c-35.415 0-64.124 28.709-64.124 64.124s28.709 64.124 64.124 64.124v0h363.615c70.692 0 128 57.308 128 128v0 192.618c0 35.415 28.709 64.124 64.124 64.124zM640.412 859.582c47.128 0 85.333-38.205 85.333-85.333v0-299.574c0-47.128-38.205-85.333-85.333-85.333v0h-343.904c-25.917 0-50.43-11.779-66.624-32.013v0l-107.386-134.181c-4.049-5.059-10.177-8.003-16.656-8.003-11.782 0-21.333 9.551-21.333 21.333v0 537.772c0 47.128 38.205 85.333 85.333 85.333v0z" />
<glyph unicode="&#xe96b;" glyph-name="tax" d="M506.526 789.333c23.564 0 42.667-19.103 42.667-42.667l-0.030-12.331 270.464-0.007c23.564 0 42.667-19.103 42.667-42.667v-9.546c0-23.564-19.103-42.667-42.667-42.667l-57.344 0.038 105.805-211.567c10.538-21.076 1.995-46.705-19.081-57.243-5.924-2.962-12.457-4.504-19.081-4.504h-182.644c-23.564 0-42.667 19.103-42.667 42.667 0 6.624 1.542 13.157 4.504 19.081l105.761 211.567h-165.717v-442.112l117.286-0.002c23.564 0 42.667-19.103 42.667-42.667v-9.546c0-23.564-19.103-42.667-42.667-42.667h-329.391c-23.564 0-42.667 19.103-42.667 42.667v9.546c0 23.564 19.103 42.667 42.667 42.667l117.214 0.002v442.112h-165.675l105.79-211.567c10.538-21.076 1.995-46.705-19.081-57.243-5.924-2.962-12.457-4.504-19.081-4.504h-182.644c-23.564 0-42.667 19.103-42.667 42.667 0 6.624 1.542 13.157 4.504 19.081l105.733 211.567-57.272-0.038c-23.564 0-42.667 19.103-42.667 42.667v9.546c0 23.564 19.103 42.667 42.667 42.667l270.392 0.007 0.042 12.331c0 23.564 19.103 42.667 42.667 42.667h9.546z" />
<glyph unicode="&#xe96c;" glyph-name="tickets" d="M512 821.333c45.837 0 85.014-27.972 102.435-67.563l2.845-7.104h145.387c44.986 0 81.842-34.811 85.099-78.965l0.234-6.369v-501.333c0-44.986-34.811-81.842-78.965-85.099l-6.369-0.234h-501.333c-44.986 0-81.842 34.811-85.099 78.965l-0.234 6.369v501.333c0 44.986 34.811 81.842 78.965 85.099l6.369 0.234h145.387c15.68 43.307 56.747 74.667 105.28 74.667zM685.217 562.784l-3.823-3.341-241.33-241.278-73.934 73.931c-13.365 13.365-34.341 14.478-48.974 3.341l-3.823-3.341c-13.365-13.365-14.478-34.341-3.341-48.974l3.341-3.823 100.19-100.19c7.29-7.29 16.844-10.935 26.399-10.935h0.335c7.962 0 15.924 2.531 22.576 7.594l3.823 3.341 267.537 267.537c14.58 14.58 14.58 38.218 0 52.797-13.365 13.365-34.341 14.478-48.974 3.341zM512 756.314c-25.839 0-46.981-21.141-46.981-46.981s21.141-46.981 46.981-46.981c25.839 0 46.981 21.141 46.981 46.981s-21.141 46.981-46.981 46.981z" />
<glyph unicode="&#xe96d;" glyph-name="transactions" d="M364.792 441.038c4.001-4.001 6.248-9.427 6.248-15.085l-0.011-75.96 413.258-0.016c21.881 0 39.915-16.471 42.38-37.691l0.287-4.976v-60.456c0-21.881-16.471-39.915-37.691-42.38l-4.976-0.287-413.258 0.013 0.011-75.989c0-11.782-9.551-21.333-21.333-21.333-5.658 0-11.084 2.248-15.085 6.248l-133.786 133.786c-16.662 16.662-16.662 43.677 0 60.34l133.786 133.786c8.331 8.331 21.839 8.331 30.17 0zM723.251 803.205l2.955-2.468 133.786-133.786c15.381-15.381 16.564-39.583 3.549-56.32l-3.549-4.020-133.786-133.786c-4.001-4.001-9.427-6.248-15.085-6.248-10.473 0-19.183 7.547-20.99 17.499l-0.344 3.835-0.020 76.014-413.227-0.038c-23.564 0-42.667 19.103-42.667 42.667v60.456c0 23.564 19.103 42.667 42.667 42.667l413.227 0.040 0.020 75.935c0 4.526 1.438 8.904 4.062 12.523l2.186 2.562c7.405 7.405 18.901 8.228 27.215 2.468z" />
<glyph unicode="&#xe96e;" glyph-name="unread" d="M850.93 734.449l4.006-3.539 46.349-46.349c15.311-15.45 16.385-39.657 3.295-56.336l-3.567-4.003-484.954-480.601c-9.258-9.175-21.665-13.24-33.713-12.203-10.17 0.55-20.203 4.697-27.98 12.474l-210.584 210.584c-16.662 16.662-16.662 43.677 0 60.34l46.214 46.214c16.662 16.662 43.677 16.662 60.34 0l135.329-135.355 409.069 405.371c15.401 15.262 39.515 16.385 56.197 3.403zM783.917 378.635c16.662 16.662 43.677 16.662 60.34 0v0l46.212-46.212c16.581-16.581 16.674-43.435 0.208-60.13v0l-126.224-127.982c-0.069-0.070-0.138-0.14-0.208-0.209-16.662-16.662-43.677-16.662-60.34 0v0l-46.212 46.212c-16.581 16.581-16.674 43.435-0.208 60.13v0l126.224 127.982z" />
<glyph unicode="&#xe96f;" glyph-name="view-card" d="M762.311 362.3c23.564 0 42.667-19.103 42.667-42.667v-127.633c0-23.564-19.103-42.667-42.667-42.667h-506.311c-23.564 0-42.667 19.103-42.667 42.667v127.633c0 23.564 19.103 42.667 42.667 42.667h506.311zM762.311 704c23.564 0 42.667-19.103 42.667-42.667v-127.633c0-23.564-19.103-42.667-42.667-42.667h-506.311c-23.564 0-42.667 19.103-42.667 42.667v127.633c0 23.564 19.103 42.667 42.667 42.667h506.311z" />
<glyph unicode="&#xe970;" glyph-name="view-chart" d="M232.28 548.416c0 23.564 19.103 42.667 42.667 42.667v0h28.39c23.564 0 42.667-19.103 42.667-42.667v0-325.099h315.078v190.684c0 23.564 19.103 42.667 42.667 42.667v0h28.39c23.564 0 42.667-19.103 42.667-42.667v0-190.684h42.66c23.564 0 42.667-19.103 42.667-42.667v0-28.39c0-23.564-19.103-42.667-42.667-42.667v0h-646.798c-23.564 0-42.667 19.103-42.667 42.667v0 28.39c0 23.564 19.103 42.667 42.667 42.667v0h61.614zM517.738 789.333c23.564 0 42.667-19.103 42.667-42.667v0-523.35h-113.723v523.35c0 23.564 19.103 42.667 42.667 42.667v0z" />
<glyph unicode="&#xe971;" glyph-name="view-column" d="M349.867 746.667v-597.333h-136.533c-23.564 0-42.667 19.103-42.667 42.667v512c0 23.564 19.103 42.667 42.667 42.667h136.533zM585.067 746.667v-597.333h-179.2v597.333h179.2zM777.6 746.667c23.564 0 42.667-19.103 42.667-42.667v-512c0-23.564-19.103-42.667-42.667-42.667h-136.533v597.333h136.533z" />
<glyph unicode="&#xe972;" glyph-name="view-list" d="M795.929 281.6c21.881 0 39.915-16.471 42.38-37.691l0.287-4.976v-25.6c0-21.881-16.471-39.915-37.691-42.38l-4.976-0.287h-358.4c-21.881 0-39.915 16.471-42.38 37.691l-0.287 4.976v25.6c0 21.881 16.471 39.915 37.691 42.38l4.976 0.287h358.4zM288.577 281.6c21.881 0 39.915-16.471 42.38-37.691l0.287-4.976v-25.6c0-21.881-16.471-39.915-37.691-42.38l-4.976-0.287h-60.506c-21.881 0-39.915 16.471-42.38 37.691l-0.287 4.976v25.6c0 21.881 16.471 39.915 37.691 42.38l4.976 0.287h60.506zM795.929 503.467c21.881 0 39.915-16.471 42.38-37.691l0.287-4.976v-25.6c0-21.881-16.471-39.915-37.691-42.38l-4.976-0.287h-358.4c-21.881 0-39.915 16.471-42.38 37.691l-0.287 4.976v25.6c0 21.881 16.471 39.915 37.691 42.38l4.976 0.287h358.4zM288.577 503.467c21.881 0 39.915-16.471 42.38-37.691l0.287-4.976v-25.6c0-21.881-16.471-39.915-37.691-42.38l-4.976-0.287h-60.506c-21.881 0-39.915 16.471-42.38 37.691l-0.287 4.976v25.6c0 21.881 16.471 39.915 37.691 42.38l4.976 0.287h60.506zM795.929 725.333c21.881 0 39.915-16.471 42.38-37.691l0.287-4.976v-25.6c0-21.881-16.471-39.915-37.691-42.38l-4.976-0.287h-358.4c-21.881 0-39.915 16.471-42.38 37.691l-0.287 4.976v25.6c0 21.881 16.471 39.915 37.691 42.38l4.976 0.287h358.4zM288.577 725.333c21.881 0 39.915-16.471 42.38-37.691l0.287-4.976v-25.6c0-21.881-16.471-39.915-37.691-42.38l-4.976-0.287h-60.506c-21.881 0-39.915 16.471-42.38 37.691l-0.287 4.976v25.6c0 21.881 16.471 39.915 37.691 42.38l4.976 0.287h60.506z" />
<glyph unicode="&#xe973;" glyph-name="streams" d="M549.855 789.333c3.132 0 6.225-0.69 9.061-2.020 10.667-5.004 15.257-17.708 10.253-28.374v0l-61.478-130.971h122.539l62.429 136.444c6.172 13.496 18.838 22.69 33.302 24.566l5.499 0.355h58.962c3.132 0 6.225-0.69 9.061-2.020 10.667-5.004 15.257-17.708 10.253-28.374v0l-61.447-130.971 88.924-0.004c10.473 0 19.183-7.547 20.99-17.499l0.344-3.835v-64.64c0-11.782-9.551-21.333-21.333-21.333v0l-139.271 0.004-59.307-126.379 130.894-0.022c10.473 0 19.183-7.547 20.99-17.499l0.344-3.835v-64.64c0-11.782-9.551-21.333-21.333-21.333v0l-181.198 0.021-64.211-136.845c-6.247-13.315-18.835-22.353-33.176-24.197l-5.451-0.349h-51.782c-3.062 0-6.088 0.659-8.873 1.933-10.715 4.9-15.428 17.559-10.528 28.273v0l59.974 131.184h-126.549l-64.181-136.845c-6.247-13.315-18.835-22.353-33.176-24.197l-5.451-0.349h-51.782c-3.062 0-6.088 0.659-8.873 1.933-10.715 4.9-15.428 17.559-10.528 28.273v0l59.985 131.184-84.395-0.021c-10.473 0-19.183 7.547-20.99 17.499l-0.344 3.835v64.64c0 11.782 9.551 21.333 21.333 21.333v0l133.461 0.022 57.771 126.379-123.549-0.004c-10.473 0-19.183 7.547-20.99 17.499l-0.344 3.835v64.64c0 11.782 9.551 21.333 21.333 21.333v0l172.658 0.004 62.418 136.444c6.172 13.496 18.838 22.69 33.302 24.566l5.499 0.355zM581.163 520.661h-123.819l-59.307-126.379h125.312l57.813 126.379z" />
<glyph unicode="&#xe974;" glyph-name="drag-handle" d="M170 298.667v86h684v-86h-684zM854 554.667v-86h-684v86h684z" />
<glyph unicode="&#xe975;" glyph-name="view-timeline" d="M379.964 789.333c23.564 0 42.667-19.103 42.667-42.667v0l-0.017-17.749 345.577-0.001c47.128 0 85.333-38.205 85.333-85.333v-427.671c0-47.128-38.205-85.333-85.333-85.333l-345.577 0.024 0.017-2.603c0-21.881-16.471-39.915-37.691-42.38l-4.976-0.287h-123.964c-23.564 0-42.667 19.103-42.667 42.667v0 123.964c0 23.564 19.103 42.667 42.667 42.667v0h123.964c23.564 0 42.667-19.103 42.667-42.667v0l-0.017-26.215 335.775-0.036-0.031 161.231-335.744 2.859 0.017-14.451c0-21.881-16.471-39.915-37.691-42.38l-4.976-0.287h-123.964c-23.564 0-42.667 19.103-42.667 42.667v0 123.964c0 23.564 19.103 42.667 42.667 42.667v0h123.964c23.564 0 42.667-19.103 42.667-42.667v0l-0.017-14.366 335.744-2.859 0.031 151.691-335.775 0.032 0.017-11.111c0-21.881-16.471-39.915-37.691-42.38l-4.976-0.287h-123.964c-23.564 0-42.667 19.103-42.667 42.667v0 123.964c0 23.564 19.103 42.667 42.667 42.667v0z" />
<glyph unicode="&#xf08d;" glyph-name="pin" horiz-adv-x="658" d="M274.286 457.143v256c0 10.286-8 18.286-18.286 18.286s-18.286-8-18.286-18.286v-256c0-10.286 8-18.286 18.286-18.286s18.286 8 18.286 18.286zM658.286 256c0-20-16.571-36.571-36.571-36.571h-245.143l-29.143-276c-1.143-9.143-8.571-16.571-17.714-16.571h-0.571c-9.143 0-16.571 6.286-18.286 15.429l-43.429 277.143h-230.857c-20 0-36.571 16.571-36.571 36.571 0 93.714 70.857 182.857 146.286 182.857v292.571c-40 0-73.143 33.143-73.143 73.143s33.143 73.143 73.143 73.143h365.714c40 0 73.143-33.143 73.143-73.143s-33.143-73.143-73.143-73.143v-292.571c75.429 0 146.286-89.143 146.286-182.857z" />
<glyph unicode="&#xf11d;" glyph-name="bookmark-outline" horiz-adv-x="598" d="M512 832q36 0 61-25t25-61v-682l-300 128-298-128v682q0 36 25 61t61 25h426zM512 192v554h-426v-554l212 94z" />
<glyph unicode="&#xf11e;" glyph-name="bookmark" horiz-adv-x="598" d="M512 832q36 0 61-25t25-61v-682l-300 128-298-128v682q0 36 25 61t61 25h426z" />
<glyph unicode="&#xf129;" glyph-name="card" d="M768 790q36 0 61-25t25-61v-512q0-36-25-61t-61-25h-682q-36 0-61 25t-25 61v512q0 36 25 61t61 25h682zM768 192v256h-682v-256h682zM768 618v86h-682v-86h682z" />
<glyph unicode="&#xf18e;" glyph-name="link" d="M82 448q0-54 38-93t94-39h170v-82h-170q-88 0-151 63t-63 151 63 151 151 63h170v-82h-170q-56 0-94-39t-38-93zM256 406v84h342v-84h-342zM640 662q88 0 151-63t63-151-63-151-151-63h-170v82h170q54 0 93 39t39 93-39 93-93 39h-170v82h170z" />
<glyph unicode="&#xf19b;" glyph-name="more-vert" horiz-adv-x="170" d="M85 618q-35 0-60 25t-25 61 25 61 60 25 60-25 25-61-25-61-60-25zM85 534q35 0 60-25t25-61-25-61-60-25-60 25-25 61 25 61 60 25zM85 278q35 0 60-25t25-61-25-61-60-25-60 25-25 61 25 61 60 25z" />
<glyph unicode="&#xf19c;" glyph-name="more" horiz-adv-x="682" d="M85 534q35 0 60-25t25-61-25-61-60-25-60 25-25 61 25 61 60 25zM597 534q35 0 60-25t25-61-25-61-60-25-60 25-25 61 25 61 60 25zM341 534q35 0 60-25t25-61-25-61-60-25-60 25-25 61 25 61 60 25z" />
<glyph unicode="&#xf1b9;" glyph-name="refresh" horiz-adv-x="682" d="M342 704q-106 0-181-75t-75-181q0-64 30-120l-64-62q-52 84-52 182 0 142 100 242t242 100v128l170-172-170-170v128zM630 630q52-84 52-182 0-142-100-242t-240-100v-128l-172 172 172 170v-128q106 0 181 75t75 181q0 62-30 120z" />
<glyph unicode="&#xf1c7;" glyph-name="shield-check" horiz-adv-x="768" d="M384 918l384-172v-256q0-178-110-325t-274-187q-164 40-274 187t-110 325v256zM298 234l342 342-60 60-282-280-110 110-60-60z" />
<glyph unicode="&#xf1c8;" glyph-name="shield-security" horiz-adv-x="768" d="M384 918l384-172v-256q0-178-110-325t-274-187q-164 40-274 187t-110 325v256zM384 448v376l-298-132v-244h298v-382q118 38 200 144t98 238h-298z" />
<glyph unicode="&#xf1cd;" glyph-name="sort-asc" horiz-adv-x="768" d="M0 704h256v-86h-256v86zM0 192v86h768v-86h-768zM0 490h512v-84h-512v84z" />
<glyph unicode="&#xf1ce;" glyph-name="sort-desc" horiz-adv-x="768" d="M0 192v86h256v-86h-256zM0 704h768v-86h-768v86zM0 406v84h512v-84h-512z" />
<glyph unicode="&#xf1e2;" glyph-name="status" horiz-adv-x="682" d="M682 534q0-60-36-105t-92-61v-48h128q0-58-36-104t-92-60v-50q0-16-12-29t-30-13h-342q-16 0-29 13t-13 29v50q-56 14-92 60t-36 104h128v48q-56 16-92 61t-36 105h128v48q-56 14-92 60t-36 104h128v44q0 16 13 29t29 13h342q18 0 30-13t12-29v-44h128q0-58-36-104t-92-60v-48h128zM341 150q35 0 60 25t25 60-25 60-60 25-60-25-25-60 25-60 60-25zM341 362q35 0 60 25t25 61-25 61-60 25-60-25-25-61 25-61 60-25zM341 576q35 0 60 25t25 60-25 60-60 25-60-25-25-60 25-60 60-25z" />
<glyph unicode="&#xf235;" glyph-name="columns-reset" horiz-adv-x="768" d="M170 64v86h86v-86h-86zM170 406v84h86v-84h-86zM342 406v84h84v-84h-84zM342 64v86h84v-86h-84zM0 234v86h86v-86h-86zM0 64v86h86v-86h-86zM0 406v84h86v-84h-86zM0 576v86h86v-86h-86zM342 234v86h84v-86h-84zM682 576v86h86v-86h-86zM682 406v84h86v-84h-86zM0 832h768v-86h-768v86zM682 234v86h86v-86h-86zM512 64v86h86v-86h-86zM342 576v86h84v-86h-84zM682 64v86h86v-86h-86zM512 406v84h86v-84h-86z" />
<glyph unicode="&#xf26a;" glyph-name="check-square" horiz-adv-x="768" d="M682 832q36 0 61-25t25-61v-596q0-36-25-61t-61-25h-596q-36 0-61 25t-25 61v596q0 36 25 61t61 25h596zM298 234l384 384-60 62-324-324-152 152-60-60z" />
<glyph unicode="&#xf26b;" glyph-name="check" horiz-adv-x="750" d="M238 268l454 454 58-60-512-512-238 238 60 60z" />
<glyph unicode="&#xf26e;" glyph-name="dot-circle-alt" d="M426 874q176 0 302-125t126-301-126-301-302-125-301 125-125 301 125 301 301 125zM427 106q141 0 241 100t100 242-100 242-241 100-241-100-100-242 100-242 241-100zM554 448q0-54-37-91t-90-37-91 37-38 91 38 91 91 37 90-37 37-91z" />
<glyph unicode="&#xf272;" glyph-name="minus-square" horiz-adv-x="768" d="M682 832q36 0 61-25t25-61v-596q0-36-25-61t-61-25h-596q-36 0-61 25t-25 61v596q0 36 25 61t61 25h596zM598 406v84h-428v-84h428z" />
<glyph unicode="&#xf273;" glyph-name="minus" horiz-adv-x="598" d="M598 406h-598v84h598v-84z" />
<glyph unicode="&#xf277;" glyph-name="plus-square" horiz-adv-x="768" d="M682 832q36 0 61-25t25-61v-596q0-36-25-61t-61-25h-596q-36 0-61 25t-25 61v596q0 36 25 61t61 25h596zM598 406v84h-172v172h-84v-172h-172v-84h172v-172h84v172h172z" />
<glyph unicode="&#xf278;" glyph-name="plus" horiz-adv-x="598" d="M598 406h-256v-256h-86v256h-256v84h256v256h86v-256h256v-84z" />
<glyph unicode="&#xf279;" glyph-name="square-o" horiz-adv-x="768" d="M682 746h-596v-596h596v596zM682 832q36 0 61-25t25-61v-596q0-36-25-61t-61-25h-596q-36 0-61 25t-25 61v596q0 36 25 61t61 25h596z" />
<glyph unicode="&#xf28c;" glyph-name="camera" d="M290 448q0 136 137 136t137-136-137-136-137 136zM298 874h256l78-84h136q36 0 61-25t25-61v-512q0-36-25-61t-61-25h-682q-36 0-61 25t-25 61v512q0 36 25 61t61 25h134zM426 234q88 0 151 63t63 151-63 151-151 63-150-63-62-151 62-151 150-63z" />
<glyph unicode="&#xf2d4;" glyph-name="smartphone" horiz-adv-x="598" d="M512 916q36 0 61-24t25-60v-768q0-36-25-61t-61-25h-426q-36 0-61 25t-25 61v768q0 36 25 61t61 25zM512 150v596h-426v-596h426z" />
<glyph unicode="&#xf2f2;" glyph-name="carat-down" horiz-adv-x="426" d="M0 554h426l-212-212z" />
<glyph unicode="&#xf2f5;" glyph-name="play-circle" d="M427 874q177 0 302-125t125-301-125-301-302-125-302 125-125 301 125 301 302 125zM342 662v-428l212 214z" />
<glyph unicode="&#xf2f8;" glyph-name="carat-up" horiz-adv-x="426" d="M426 342h-426l214 212z" />
<glyph unicode="&#xf2ff;" glyph-name="arrow-left" horiz-adv-x="768" d="M768 490v-84h-604l152-154-60-60-256 256 256 256 60-60-152-154h604z" />
<glyph unicode="&#xf301;" glyph-name="arrow-right" horiz-adv-x="768" d="M0 490h604l-152 154 60 60 256-256-256-256-60 60 152 154h-604v84z" />
<glyph unicode="&#xf342;" glyph-name="facebook-box" d="M726 704h-108q-62 0-105-44t-43-106v-106h-86v-128h86v-298h128v298h128v128h-128v86q0 16 12 29t30 13h86v128zM0 874h854v-852h-854v852z" />
<glyph unicode="&#xf343;" glyph-name="facebook" horiz-adv-x="448" d="M290 22h-158v388h-132v152h132v112q0 96 54 148t144 52q72 0 118-6v-134l-82-2q-44 0-60-18t-16-54v-98h152l-20-152h-132v-388z" />
<glyph unicode="&#xf356;" glyph-name="linkedin-box" d="M726 150v242q0 62-44 106t-106 44q-30 0-60-17t-46-43v52h-128v-384h128v226q0 26 18 45t45 19 46-19 19-45v-226h128zM192 606q32 0 55 22t23 54-23 55-55 23-55-23-23-55 23-54 55-22zM256 150v384h-128v-384h128zM768 874q36 0 61-25t25-59v-684q0-34-25-59t-61-25h-682q-36 0-61 25t-25 59v684q0 34 25 59t61 25h682z" />
<glyph unicode="&#xf35f;" glyph-name="twitter-box" d="M670 562q44 36 56 60-26-12-62-18 36 26 48 64-40-22-74-28-24 28-62 33t-71-10-53-50-10-77q-134 8-236 118-22-40-9-87t43-65q-22 2-48 14 2-86 88-114-24-6-48-2 24-72 106-80-30-26-78-39t-90-7q90-56 184-52 140 6 227 99t89 241zM768 874q36 0 61-25t25-59v-684q0-34-25-59t-61-25h-682q-36 0-61 25t-25 59v684q0 34 25 59t61 25h682z" />
<glyph unicode="&#xf360;" glyph-name="twitter" d="M766 622v-22q0-90-33-177t-94-159-158-117-213-45q-146 0-268 78 20-2 42-2 122 0 218 74-58 2-103 36t-61 86q16-4 32-4 24 0 46 8-60 12-100 60t-40 110v2q38-20 80-22-78 54-78 146 0 48 24 88 66-80 159-128t201-54q-4 20-4 40 0 72 51 123t123 51q76 0 128-54 60 12 112 42-20-62-78-96 54 6 102 26-36-52-88-90z" />
<glyph unicode="&#xf372;" glyph-name="reset-photo" horiz-adv-x="768" d="M768 746v-280l-128 128-170-172-172 172-170-172-128 130v194q0 36 25 61t61 25h596q36 0 61-25t25-61zM640 472l128-128v-194q0-36-25-61t-61-25h-596q-36 0-61 25t-25 61v280l128-128 170 172 172-172z" />
<glyph unicode="&#xf382;" glyph-name="filter-target" horiz-adv-x="768" d="M86 320v-170h170v-86h-170q-36 0-61 25t-25 61v170h86zM86 746v-170h-86v170q0 36 25 61t61 25h170v-86h-170zM682 832q36 0 61-25t25-61v-170h-86v170h-170v86h170zM682 150v170h86v-170q0-36-25-61t-61-25h-170v86h170zM384 576q54 0 91-37t37-91-37-91-91-37-91 37-37 91 37 91 91 37z" />
<glyph unicode="&#xf3aa;" glyph-name="play" horiz-adv-x="470" d="M0 746l470-298-470-298v596z" />
<glyph unicode="&#xf3b6;" glyph-name="stop" horiz-adv-x="512" d="M0 704h512v-512h-512v512z" />
<glyph unicode="&#xf3f8;" glyph-name="linkedin" d="M638 437q-16 21-60 21-54 0-76-32t-22-90v-292q0-10-6-16t-16-6h-152q-8 0-15 6t-7 16v540q0 8 7 15t15 7h148q8 0 13-4t7-12v-10q2-4 2-14 56 54 152 54 106 0 166-54t60-158v-364q0-10-7-16t-15-6h-156q-8 0-15 6t-7 16v328q0 44-16 65zM176 697q-30-31-73-31t-73 31-30 74 30 73 73 30 73-30 30-73-30-74zM202 584v-540q0-10-7-16t-15-6h-152q-10 0-16 6t-6 16v540q0 8 6 15t16 7h152q8 0 15-7t7-15z" />
</font>
</defs>
</svg>
